<?xml version="1.0" standalone="no"?>
<!DOCTYPE svg PUBLIC "-//W3C//DTD SVG 1.1//EN" "http://www.w3.org/Graphics/SVG/1.1/DTD/svg11.dtd" >
<svg xmlns="http://www.w3.org/2000/svg">
<metadata>
<json>
<![CDATA[
{
	"fontFamily": "Ids_Itau_Icons",
	"description": "Font generated by IcoMoon.",
	"majorVersion": 3,
	"minorVersion": 1,
	"version": "Version 3.1",
	"fontId": "Ids_Itau_Icons",
	"psName": "Ids_Itau_Icons",
	"subFamily": "Regular",
	"fullName": "Ids_Itau_Icons"
}
]]>
</json>
</metadata>
<defs>
<font id="Ids_Itau_Icons" horiz-adv-x="1024">
<font-face units-per-em="1024" ascent="1024" descent="0" />
<missing-glyph horiz-adv-x="1024" />
<glyph unicode="&#x20;" horiz-adv-x="0" d="" />
<glyph unicode="&#xe831;" glyph-name="undetermined_checkbox_variant" data-tags="undetermined_checkbox_variant" horiz-adv-x="877" d="M640.862 190.171h-404.724c-68.267 0-121.905 53.638-121.905 121.905v399.848c0 68.267 53.638 121.905 121.905 121.905h404.724c68.267 0 121.905-53.638 121.905-121.905v-404.724c0-63.39-53.638-117.029-121.905-117.029zM250.767 472.99h380.343v68.267h-380.343v-68.267z" />
<glyph unicode="&#xe832;" glyph-name="checkbox_undetermined_base" data-tags="checkbox_undetermined_base" horiz-adv-x="877" d="M275.148 475.429h326.705v73.143h-326.705v-73.143zM114.233 714.362v-404.724c0-68.267 53.638-121.905 121.905-121.905h404.724c68.267 0 121.905 53.638 121.905 121.905v404.724c0 68.267-53.638 121.905-121.905 121.905h-404.724c-68.267 0-121.905-53.638-121.905-121.905zM236.138 768h404.724c29.257 0 48.762-24.381 48.762-48.762v-404.724c0-29.257-24.381-48.762-48.762-48.762h-404.724c-29.257 0-48.762 24.381-48.762 48.762v399.848c0 29.257 24.381 53.638 48.762 53.638z" />
<glyph unicode="&#xe900;" glyph-name="back_space_base" data-tags="back_space_base" horiz-adv-x="828" d="M653.046 837.232h-300.862c-45.349 0-88.747-19.504-117.516-52.661l-181.882-188.215c-43.398-44.859-43.886-115.075-1.463-160.909l166.766-194.066c29.745-34.621 73.63-54.613 119.467-54.613h314.028c86.796 0 157.501 70.705 157.501 157.496v336.935c0 85.818-69.73 155.546-155.55 155.546l-0.488 0.488zM737.404 344.751c0-47.787-38.522-86.304-86.309-86.304h-314.028c-25.356 0-49.25 10.728-65.341 30.228l-167.253 194.557-0.975 1.463c-16.579 17.554-16.579 45.347 0 63.389l183.345 189.678c16.579 18.529 39.985 29.256 65.341 29.256h300.862c46.811 0 84.358-38.033 84.358-84.355v-337.911zM638.418 609.033l-96.549-96.546 96.549-96.546-50.225-50.223-96.55 96.546-96.549-96.546-50.225 50.223 96.549 96.546-96.549 96.546 50.225 50.223 96.549-96.546 96.55 96.546 50.225-50.223z" />
<glyph unicode="&#xe901;" glyph-name="cinema_base" data-tags="cinema_base" horiz-adv-x="926" d="M524.189 755.802c0 44.9-36.367 81.267-81.268 81.267s-81.27-36.368-81.27-81.267c0-44.899 36.369-81.267 81.27-81.267s81.268 36.368 81.268 81.267zM402.287 755.802c0 22.45 18.184 40.634 40.635 40.634s40.635-18.183 40.635-40.634c0-22.45-18.184-40.634-40.635-40.634s-40.635 18.183-40.635 40.634zM686.732 512c44.9 0 81.267 36.368 81.267 81.267s-36.367 81.267-81.267 81.267c-44.905 0-81.271-36.368-81.271-81.267s36.372-81.267 81.271-81.267zM686.732 633.901c22.45 0 40.633-18.183 40.633-40.634s-18.183-40.634-40.633-40.634c-22.45 0-40.638 18.183-40.638 40.634s18.188 40.634 40.638 40.634zM605.461 227.562c44.905 0 81.271 36.367 81.271 81.267s-36.372 81.267-81.271 81.267c-44.9 0-81.267-36.367-81.267-81.267s36.367-81.267 81.267-81.267zM605.461 349.462c22.45 0 40.638-18.178 40.638-40.633 0-22.45-18.183-40.633-40.638-40.633-22.45 0-40.633 18.183-40.633 40.633s18.183 40.633 40.633 40.633zM280.382 390.101c-44.902 0-81.27-36.372-81.27-81.267 0-44.9 36.369-81.271 81.27-81.271s81.27 36.372 81.27 81.271c0 44.9-36.369 81.267-81.27 81.267zM280.382 268.196c-22.45 0-40.635 18.183-40.635 40.638 0 22.45 18.184 40.633 40.635 40.633s40.635-18.183 40.635-40.633c0-22.45-18.184-40.638-40.635-40.638zM280.382 593.267c0 44.9-36.369 81.267-81.27 81.267s-81.27-36.368-81.27-81.267c0-44.899 36.369-81.267 81.27-81.267s81.27 36.368 81.27 81.267zM158.477 593.267c0 22.45 18.184 40.634 40.635 40.634s40.635-18.183 40.635-40.634c0-22.45-18.184-40.634-40.635-40.634s-40.635 18.183-40.635 40.634zM869.59 146.296h-249.295c135.514 65.829 228.976 204.898 228.976 365.704 0 224.4-181.94 406.337-406.349 406.337-224.407 0-406.349-181.938-406.349-406.337 0-224.402 181.943-406.337 406.349-406.337h426.668c11.171 0 20.314 9.143 20.314 20.314 0 11.176-9.143 20.319-20.314 20.319v0zM184.281 253.367c-33.626 33.626-59.936 72.733-78.426 116.214-18.997 45.1-28.648 93.049-28.648 142.419s9.65 97.318 28.75 142.319c18.388 43.58 44.8 82.69 78.426 116.213s72.736 59.935 116.216 78.423c45.003 19.098 92.952 28.749 142.324 28.749s97.319-9.65 142.321-28.749c43.583-18.387 82.695-44.799 116.219-78.423 33.626-33.625 59.938-72.734 78.424-116.213 19.1-45.001 28.75-92.949 28.75-142.319s-9.65-97.319-28.75-142.322c-18.388-43.579-44.798-82.686-78.424-116.209-33.626-33.626-72.738-59.933-116.219-78.424-45.002-19.1-92.95-28.75-142.321-28.75s-97.321 9.65-142.324 28.75c-43.581 18.388-82.692 44.798-116.317 78.321h-0.001z" />
<glyph unicode="&#xe902;" glyph-name="soccer_base" data-tags="soccer_base" horiz-adv-x="877" d="M438.857 922.075c-226.255 0-410.088-183.827-410.088-410.075s183.832-410.075 410.088-410.075c226.256 0 410.089 183.828 410.089 410.075s-183.832 410.075-410.089 410.075zM634.393 484.694l-52.663 162.86 39.010 44.859 118.004-22.918c14.629-27.793 25.844-58.025 32.183-90.207l-84.846-112.637-51.688 18.529v-0.488zM239.42 484.694l-50.712-18.529-81.432 114.587c6.827 32.67 18.042 63.389 33.646 91.669l118.491 23.893 33.646-46.81-53.638-164.81zM137.508 414.967l-4.389-48.274c-14.141 29.745-24.381 61.928-29.257 95.572l33.646-47.298zM259.9 769.455l-52.663-10.24c24.381 22.917 52.663 42.421 82.895 57.049l-30.72-46.81h0.488zM634.88 762.141l-28.77 43.397c24.869-14.14 47.787-31.694 68.267-51.199l-39.497 7.802zM737.768 416.917l35.596 47.298c-4.876-35.107-15.604-68.753-30.232-99.473l-5.364 52.175zM495.421 845.521l70.705-107.76-40.472-46.322h-174.569l-29.257 40.959 75.581 115.075c13.653 1.95 27.794 2.926 41.935 2.926 19.017 0 38.034-1.95 56.077-4.876zM196.998 275.512l11.215 121.9 54.613 19.505 138.971-100.932v-52.175l-137.021-41.935c-24.869 15.116-47.787 32.67-67.779 53.15v0.488zM371.078 179.939l68.267 20.968 67.292-20.968c-21.943-4.389-44.862-6.827-68.268-6.827s-45.836 2.438-67.779 6.827h0.488zM612.45 221.874l-139.948 43.886v50.712l138.972 100.932 56.564-20.48 12.19-121.412c-19.992-20.48-42.91-38.522-67.779-53.15v-0.488z" />
<glyph unicode="&#xe903;" glyph-name="theater_base" data-tags="theater_base" horiz-adv-x="877" d="M212.378 296.888c10.057-2.54 17.778-3.857 24.381-4.979v-40.633c-96 15.038-204.8 70.198-204.8 214.649l1.117 379.113c0.61 9.447 8.026 16.254 16.254 16.254 2.031 0 4.165-0.407 6.197-1.321 36.267-15.949 96.61-42.462 221.359-39.821h41.143v-40.634h-41.143c-58.311 0-107.073 3.352-152.483 14.12-19.81 4.673-35.759 9.854-50.184 15.136v-342.949c0-33.93 5.486-63.49 19.505-87.971 11.886-20.724 28.952-38.4 50.895-52.521 19.403-12.493 42.159-22.045 67.759-28.443h-0.001zM845.469 751.58l-85.333-398.616c-32.505-156.54-163.962-211.7-288.506-182.955-81.27 18.793-228.571 99.45-188.038 286.366l90.311 390.286c2.438 8.736 9.55 14.121 16.66 14.121 3.048 0 5.993-0.914 8.635-3.048 31.797-24.583 54.755-50.487 162.033-81.267 130.131-37.383 246.96-8.838 265.752-4.369 1.117 0.305 2.336 0.407 3.452 0.407 9.552 0 16.867-9.65 15.038-20.926h-0.005zM798.843 725.066c-19.914-3.048-129.526-15.34-237.514 10.769-84.010 20.316-142.22 58.41-154.919 66.842l-82.59-355.037c-31.695-142.829 82.895-213.124 146.083-229.884 143.236-37.995 222.474 37.586 251.122 143.74l77.819 363.569zM195.616 637.298c0-11.174 9.143-20.317 20.317-20.317s20.317 9.142 20.317 20.317c0 11.174-9.143 20.316-20.317 20.316s-20.317-9.142-20.317-20.316zM498.347 617.083c12.8-1.321 23.567 9.447 22.245 22.247-0.912 9.55-8.636 17.168-18.183 18.183-12.8 1.321-23.568-9.447-22.247-22.247 0.914-9.55 8.637-17.269 18.185-18.183zM662.919 616.981c-11.176 0-20.319-9.143-20.319-20.317s9.143-20.317 20.319-20.317c11.171 0 20.314 9.143 20.314 20.317s-9.143 20.317-20.314 20.317zM155.489 413.711c32 26.514 58.412 41.447 81.27 40.735v40.634c-24.076-2.336-51.098-12.495-81.27-40.735v-40.634zM519.174 387.096c-91.634 21.536-141.107 81.267-141.107 81.267l-13.207-48.558c0 0 37.993-46.932 125.764-73.546 88.181-26.819 164.571-5.081 164.571-5.081l13.21 48.863c0 0-68.774-21.942-149.231-2.946z" />
<glyph unicode="&#xe904;" glyph-name="investment_stocks_base" data-tags="investment_stocks_base" horiz-adv-x="828" d="M780.921 166.776h-731.427v71.192h731.427v-71.192zM246.979 610.496h7.802l115.566-144.819c10.728-13.165 26.331-21.454 43.398-22.43s33.646 5.363 45.836 17.554l346.209 346.199-50.225 50.223-337.431-337.422-107.764 135.067c-14.141 17.554-34.621 27.793-57.051 28.281-22.918 0.488-43.886-8.289-59.002-24.868l-171.154-188.216 52.663-47.785 171.154 188.216z" />
<glyph unicode="&#xe905;" glyph-name="place_favorite_base" data-tags="place_favorite_base" horiz-adv-x="828" d="M799.592 414.176c-2.336 7.514-8.836 13-16.657 14.117l-116.014 15.745-51.605 97.725c-3.56 6.705-10.464 10.87-17.983 10.87s-14.424-4.165-17.979-10.87l-51.61-97.725-116.012-15.745c-7.822-1.014-14.324-6.602-16.66-14.117-2.336-7.519-0.102-15.745 5.689-21.031l83.099-75.678-19.505-106.564c-1.422-7.514 1.626-15.238 7.721-19.909s14.324-5.383 21.233-2.033l104.024 51.2 104.024-51.2c2.848-1.419 5.895-2.131 8.943-2.028 4.369 0 8.636 1.419 12.293 4.164 6.095 4.671 9.143 12.293 7.719 19.909l-19.505 106.564 83.1 75.678c5.788 5.183 8.026 13.41 5.686 20.929v0zM675.050 339.916c-5.183-4.671-7.519-11.786-6.3-18.69l14.321-77.917-76.8 37.688c-2.843 1.419-5.89 2.028-8.938 2.028s-6.095-0.707-8.938-2.028l-76.8-37.688 14.321 77.917c1.219 6.905-1.117 13.917-6.295 18.69l-59.228 54.043 83.2 11.274c6.505 0.917 12.19 4.876 15.238 10.669l38.502 72.937 38.502-72.937c3.048-5.793 8.738-9.752 15.238-10.669l83.198-11.274-59.221-54.043zM333.206 796.436c-78.527 0-142.222-63.693-142.222-142.218s63.695-142.218 142.222-142.218c78.527 0 142.222 63.693 142.222 142.218s-63.695 142.218-142.222 142.218zM333.206 552.633c-56.076 0-101.588 45.51-101.588 101.585s45.511 101.584 101.588 101.584c56.076 0 101.588-45.51 101.588-101.584s-45.511-101.585-101.588-101.585zM594.69 593.266c1.931 10.159 2.643 18.387 2.643 24.888 0 34.945-6.91 68.874-20.621 100.771-13.307 30.882-32.305 58.614-56.481 82.486-24.283 23.872-52.523 42.665-84.014 55.769-32.61 13.612-67.251 20.52-103.010 20.52s-70.4-6.908-103.010-20.419c-31.492-13.104-59.733-31.897-84.012-55.769-24.178-23.873-43.276-51.605-56.483-82.486-13.714-31.999-20.622-65.827-20.622-100.873 0-21.536 7.517-61.865 43.174-131.551 24.381-47.641 58.616-102.601 101.689-163.451 45.105-63.386 90.412-119.969 119.264-154.609 25.092 30.169 62.679 76.898 101.588 130.228v-67.857c-55.974-73.343-101.588-125.25-101.588-125.25s-304.762 346.704-304.762 512.49c0 165.786 136.431 300.182 304.762 300.182 168.329 0 304.76-134.396 304.76-300.182 0-7.924-0.707-16.254-2.028-24.888h-41.248z" />
<glyph unicode="&#xe906;" glyph-name="place_base" data-tags="place_base" horiz-adv-x="682" d="M306.112 896.456c-99.271-10.199-179.078-59.367-234.91-144.66-83.017-126.903-60.587-290.499 61.928-451.82 43.764-57.578 109.47-121.212 163.637-158.432 20.48-14.063 41.448-18.491 61.847-13.044 12.028 3.209 17.92 6.539 38.928 22.187 122.553 91.263 217.195 218.492 249.456 335.276 10.24 37.059 13.819 62.984 13.819 99.637 0 61.887-16.784 117.191-51.161 168.513-45.958 68.632-109.47 114.469-185.579 133.892-32.020 8.168-84.236 11.947-117.963 8.452zM393.477 822.257c32.020-6.501 62.050-18.855 87.040-35.759 32.993-22.35 67.088-61.562 85.739-98.702 36.654-72.899 31.291-159.899-15.643-253.928-41.287-82.61-117.883-170.464-200.9-230.441l-8.899-6.417-12.272 9.021c-86.471 63.834-165.75 158.554-203.175 242.669-36.206 81.473-42.423 148.724-19.708 213.658 18.408 52.704 61.765 105.082 110.974 134.136 22.146 13.044 57.905 24.787 87.812 28.85 18.936 2.56 70.095 0.813 89.031-3.088zM319.278 665.366c-14.588-3.901-26.047-10.768-37.872-22.593-12.271-12.312-18.489-22.918-22.552-38.644-16.091-61.969 41.57-119.995 103.091-103.863 24.828 6.501 45.552 23.202 55.873 44.942 12.434 26.21 12.353 50.794-0.284 77.044-5.486 11.337-23.406 29.623-35.352 35.962-17.758 9.468-43.52 12.394-62.903 7.152z" />
<glyph unicode="&#xe907;" glyph-name="wing_base" data-tags="wing_base" horiz-adv-x="877" d="M814.73 641.418c-19.505 46.119-47.44 87.464-82.895 123.018-35.552 35.554-76.902 63.49-123.021 82.893-47.748 20.216-98.436 30.373-150.654 30.373h-308.826c-64.407 0-116.826-38.196-116.826-102.6 0-101.279 121.905-101.076 121.905-101.076h20.521c-13.003-16.254-20.521-36.977-20.521-61.459 0-76.086 68.774-94.88 103.010-99.552-13.714-16.457-21.74-37.687-21.74-62.982 0-101.281 121.905-101.076 121.905-101.076l246.857 0.507c20.724 0 37.586-26.005 37.586-46.729v-59.933c0-53.74 47.85-96.505 101.591-96.505s101.586 42.764 101.586 96.505v247.966c0 52.215-10.26 102.904-30.476 150.65v-0.001zM804.573 242.9c0-31.388-29.564-55.871-60.952-55.871-31.393 0-60.952 24.483-60.952 55.871v59.938c0 43.169-35.050 87.362-78.224 87.362h-251.935c-42.057 0-76.19 17.877-76.19 59.932 0 38.806 29.155 58.818 66.743 61.56l116.826 0.407c9.143 0 19.607 4.063 19.607 20.316 0 11.174-8.431 20.317-19.607 20.317h-188.648c-42.057 0-76.19 17.879-76.19 59.934 0 39.211 29.867 59.224 67.962 61.662l115.505 0.305c9.143 0 19.607 4.063 19.607 20.316 0 11.174-8.431 20.317-19.607 20.317h-229.181c-42.057 0-76.19 17.879-76.19 59.934s34.133 61.967 76.19 61.967h308.826c92.548 0 179.505-36.063 244.924-101.483 65.424-65.42 101.488-152.377 101.488-244.919v-247.866zM657.878 648.832c42.16-42.259 65.424-98.333 65.424-158.065v-81.267c0-11.172-9.143-20.315-20.319-20.315-11.171 0-20.314 9.143-20.314 20.315v81.267c0 100.873-81.983 182.852-182.857 182.852-11.176 0-20.318 9.142-20.318 20.316s9.142 20.317 20.318 20.317c59.733 0 115.81-23.263 158.067-65.42z" />
<glyph unicode="&#xe908;" glyph-name="help_base" data-tags="help_base" horiz-adv-x="877" d="M438.857 918.175c-224.305 0-406.186-181.876-406.186-406.174s181.882-406.176 406.186-406.176 406.186 181.877 406.186 406.176c0 224.298-181.882 406.174-406.186 406.174zM438.857 176.529c-185.295 0-335.482 150.182-335.482 335.472s150.187 335.472 335.482 335.472c185.295 0 334.994-150.182 334.994-335.472s-150.187-335.472-334.994-335.472zM458.85 348.166h-73.63v-79.97h73.63v79.97zM553.447 699.241c-27.307 21.455-64.366 32.182-111.664 32.182-42.91 0-84.358-10.727-123.368-31.694v-74.603c35.596 20.967 72.168 31.694 110.202 31.694 24.381 0 42.91-4.389 56.076-13.653s19.992-22.43 19.992-39.984c0-11.702-3.901-22.43-11.703-33.157s-23.405-24.868-46.811-42.909c-23.406-18.041-39.985-36.083-49.25-54.612-9.265-17.554-13.653-39.498-13.653-65.824 0-6.827 0.488-14.141 1.95-22.918h75.093c0 3.901-0.488 9.265-0.488 15.604 0 19.5 4.389 36.079 13.653 48.757 9.264 13.167 27.306 30.233 54.613 50.225 22.918 17.066 39.497 34.62 50.225 52.174 11.215 18.041 16.579 38.52 16.579 60.95 0 36.57-13.653 65.827-41.448 87.281v0.488z" />
<glyph unicode="&#xe909;" glyph-name="food_base" data-tags="food_base" horiz-adv-x="682" d="M92.444 877.714v-284.444c0-25.247 20.467-45.714 45.714-45.714h81.27c25.247 0 45.714 20.467 45.714 45.714v284.444h71.111v-284.444c0-64.521-52.305-116.825-116.826-116.825h-5.079v-330.158h-71.111v330.158h-5.079c-64.521 0-116.826 52.304-116.826 116.825v284.444h71.111zM427.683 755.809c0 64.521 52.304 116.825 116.827 116.825h116.824v-726.348h-71.109v188.445l-128.324 128.323c-21.909 21.909-34.217 51.624-34.217 82.608v210.146zM590.224 435.298v366.225h-45.714c-25.249 0-45.714-20.467-45.714-45.714v-210.146c0-12.124 4.813-23.752 13.385-32.325l78.043-78.040zM143.238 837.079v-203.175h71.111v203.175h-71.111z" />
<glyph unicode="&#xe90a;" glyph-name="target_base" data-tags="target_base" horiz-adv-x="877" d="M524.824 510.783c0-48.254-39.336-87.18-87.184-87.18-47.85 0-87.184 39.332-87.184 87.18s39.334 87.181 87.184 87.181c47.848 0 87.184-39.333 87.184-87.181zM689.864 511.999c0-138.68-112.728-250.998-251.007-250.998s-251.010 112.723-251.010 250.998c0 138.273 112.731 251 251.010 251s251.007-112.727 251.007-251zM595.788 510.783c0 87.181-70.963 158.142-158.148 158.142s-158.148-70.961-158.148-158.142c0-87.18 70.964-158.144 158.148-158.144s158.148 70.963 158.148 158.144zM847.204 511.999c0-225.047-183.291-408.328-408.347-408.328s-408.347 182.877-408.347 408.328c0 225.454 183.289 408.331 408.347 408.331s408.347-183.283 408.347-408.331zM760.832 511.999c0 177.606-144.364 321.961-321.975 321.961-177.613 0-321.973-144.355-321.973-321.961s144.361-321.961 321.973-321.961c177.611 0 321.975 144.355 321.975 321.961z" />
<glyph unicode="&#xe90b;" glyph-name="prepayment_receivables_base" data-tags="prepayment_receivables_base" d="M734.41 202.643c56.105 0 101.591 45.48 101.591 101.586v507.714c-0.015 59.466-48.528 107.967-107.998 107.967l-250.232-0.001c-30.808-0.277-58.517-13.323-78.109-34.062l-121.503-20.804c-56.318-9.907-98.884-62.492-88.628-121.184l83.337-452.918c10.192-57.749 66.914-94.54 124.098-84.5l39.424 6.871-0.095 0.541c15.080-7.188 31.959-11.21 49.779-11.21v71.109c-24.734 0-44.775 20.075-44.734 44.812l0.65 395.256h-0.783v97.733c0 20.216 16.37 36.988 37.070 37.245h249.726c20.207 0 36.884-16.679 36.884-36.884l0.727-500.938c-0.015-20.090-16.623-36.962-37.074-37.225l-100.737 0.054 44.432 47.972-52.17 48.323-78.227-84.46c-25.752-27.804-25.479-70.856 0.698-98.304l79.387-83.246 51.463 49.074-47.187 49.479h108.212zM290.411 794.996l79.684 13.643v-165.928h0.666l-0.533-324.028c-0.025-15.116 2.845-29.559 8.088-42.803-18.148-0.234-32.8 12.444-35.428 27.477l-83.328 452.869c-2.697 15.879 9.036 34.897 30.851 38.771zM564.655 757.587c0-19.921 16.301-36.219 36.22-36.219 19.924 0 36.22 16.299 36.22 36.219s-16.296 36.219-36.22 36.219c-19.919 0-36.22-16.299-36.22-36.219zM631.088 625.886c-12.644 0-23.669-3.491-32.753-11.304-8.836-7.262-15.575-18.096-19.934-31.504-3.599-10.454-6.617-17.208-8.66-20.366-1.697-2.186-3.092-2.615-4.442-2.615-2.56 0-3.94 0.849-4.988 2.423-1.424 2.138-2.662 6-2.662 12.946 0 9.509 2.072 19.076 6.617 28.774l5.427 11.576h-47.316l-2.125-4.886c-2.707-6.226-4.846-12.927-6.079-19.952h-22.455v-52.84h28.896c1.963-3.953 4.35-7.712 7.183-11.125 10.11-12.503 23.956-18.412 40.52-18.412 11.483 0 22.045 3.589 30.627 10.537l0.029 0.024c8.841 7.231 14.921 17.034 19.295 29.408 3.033 8.436 5.198 13.921 7.217 17.673 2.126 3.948 3.76 5.69 4.618 6.302 1.17 0.837 2.238 1.171 3.33 1.171 3.145 0 4.579-1.015 5.5-2.51l0.195-0.318 0.224-0.299c1.434-1.911 2.74-5.788 2.74-13.249 0-10.147-3.223-22.686-9.952-36.78l-5.549-11.625h48.201l2.214 4.598c3.769 7.821 6.363 16.038 8.002 24.603h25.029v52.84h-27.872c-2.472 6.228-5.71 11.758-9.899 16.843l-0.029 0.037c-10.162 12.194-24.347 18.029-41.15 18.029z" />
<glyph unicode="&#xe90c;" glyph-name="investment_apply_base" data-tags="investment_apply_base" horiz-adv-x="828" d="M495.92 423.936l188.416 188.416-49.152 49.152-184.32-184.32v405.504h-73.728v-405.504l-184.32 188.416-53.248-53.248 188.416-188.416c45.056-45.056 122.88-45.056 167.936 0zM713.008 382.976v-122.88c0-24.576-20.48-45.056-45.056-45.056h-507.904c-24.576 0-45.056 20.48-45.056 45.056v122.88h-73.728v-122.88c0-65.536 53.248-118.784 118.784-118.784h507.904c65.536 0 118.784 53.248 118.784 118.784v122.88h-73.728z" />
<glyph unicode="&#xe90d;" glyph-name="mobile_app_base" data-tags="mobile_app_base" horiz-adv-x="585" d="M447.391 106.801h-309.639c-64.853 0-118.004 52.658-118.004 117.999v574.398c0 64.851 52.663 118 118.004 118h309.639c64.853 0 118.003-52.661 118.003-118v-574.398c0-64.853-52.663-117.999-118.003-117.999zM137.265 846.008c-25.844 0-46.812-20.967-46.812-46.81v-574.398c0-25.844 20.968-46.811 46.812-46.811h309.638c25.844 0 46.811 20.968 46.811 46.811v574.398c0 25.843-20.968 46.81-46.811 46.81h-309.638zM291.352 310.129c21.455 0 38.522-18.037 38.522-40.468s-17.555-40.472-38.522-40.472c-20.968 0-38.522 18.042-38.522 40.472s17.554 40.468 38.522 40.468zM157.257 749.95h99.475v-99.471h-99.475v99.471zM157.257 580.264h99.475v-99.471h-99.475v99.471zM328.411 749.95h99.474v-99.471h-99.474v99.471z" />
<glyph unicode="&#xe90e;" glyph-name="hand_hold_base" data-tags="hand_hold_base" d="M713.789 547.145l-67.413-15.36h-2.133l-7.253 52.053c-0.853 7.253-2.987 14.080-5.12 20.907l62.72 14.080c9.387 2.133 15.36 11.52 13.227 20.907l-47.787 210.347c-1.707 8.107-8.96 13.653-17.067 13.653-1.28 0-2.56 0-3.84 0l-309.333-69.973c-5.973-1.28-9.387-5.547-11.093-7.68s-3.84-7.253-2.133-13.227l47.787-210.347c0.427-2.56 1.707-5.12 3.413-6.827l4.693-80.64c-38.4 3.84-72.107 31.147-81.067 70.827l-47.787 210.347c-11.093 49.493 20.053 98.987 69.547 110.080l309.333 69.973c49.493 11.093 98.987-20.053 110.080-69.547l47.787-210.347c11.093-48.64-19.2-97.28-67.413-109.653l0.853 0.853zM655.336 475.465l-28.587-234.667c-6.4-52.48-50.773-78.507-91.733-81.067-46.080-2.987-87.040 33.707-89.6 81.493-3.413 58.453 14.080 108.8 32.427 162.133 4.267 11.947 8.107 23.893 12.373 36.267l2.133 6.827-6.827 117.76c0 8.533 4.267 13.227 7.253 15.36 2.56 2.133 8.107 5.12 15.787 2.987 6.827-2.133 11.947-8.107 12.8-14.933l22.613-159.147 73.813 10.667-22.613 159.147c-5.12 35.84-31.147 65.707-65.707 75.947-28.587 8.533-58.88 2.56-82.347-15.787s-36.693-47.36-35.413-78.080l5.973-104.107c-2.987-9.387-6.4-18.773-9.813-28.16-20.053-57.6-40.533-117.333-36.267-190.72 5.12-85.333 75.52-151.893 159.573-151.893h9.387c85.333 5.12 151.893 65.28 161.707 146.347l28.587 234.667c1.707 13.653 2.56 27.307 2.133 40.96l-75.52-17.067c0-5.12 0-9.813-0.853-14.933h-1.28z" />
<glyph unicode="&#xe90f;" glyph-name="cold_base" data-tags="cold_base" d="M542.014 905.274c0 17.673-14.327 32-32 32s-32-14.327-32-32v-58.57l-27.947 29.795c-12.13 12.811-32.344 13.386-45.184 1.286s-13.463-32.311-1.393-45.18l74.524-79.452v-107.265l-53.185-30.963c-4.645-2.705-9.009-5.765-13.065-9.136l-88.102 60.449-23.352 106.399c-3.782 17.234-20.8 28.154-38.042 24.412s-28.203-20.734-24.501-37.985l8.808-40.133-51.764 35.362c-14.593 9.969-34.505 6.22-44.474-8.373s-6.22-34.505 8.373-44.474l51.367-35.091-40.122-6.148c-17.433-2.744-29.353-19.084-26.644-36.522s19.024-29.394 36.468-26.719l0.13 0.021 107.546 16.477 91.516-62.792c-1.212-6.097-1.839-12.361-1.839-18.714v-40.444c0-6.558 0.669-13.022 1.958-19.307l-91.619-62.861-107.675 16.499c-17.444 2.675-33.759-9.28-36.468-26.718s9.211-33.779 26.644-36.523l0.13-0.021 39.944-6.118-52.679-35.955c-14.41-9.835-18.286-29.402-8.713-43.989s29.065-18.816 43.823-9.51l1.35 0.896 52.776 36.023-8.576-39.049-0.211-0.986-0.032-0.149c-3.701-17.25 7.259-34.24 24.501-37.982s34.26 7.177 38.042 24.41l0.032 0.149 23.32 106.253 88.532 60.74c4.307-3.533 8.954-6.72 13.911-9.506l51.894-29.141v-106.935l-74.524-79.45c-12.070-12.873-11.447-33.079 1.393-45.18 12.84-12.105 33.054-11.529 45.184 1.284l0.102 0.111 27.844 29.683v-59.456c0-17.677 14.327-32 32-32s32 14.323 32 32v59.456l27.93-29.781c12.126-12.821 32.346-13.406 45.193-1.306s13.474 32.316 1.399 45.188l-0.090 0.094-74.432 79.356v106.935l67.179 37.734 87.202-59.827 23.351-106.402c3.78-17.233 20.8-28.151 38.042-24.41 17.246 3.742 28.203 20.736 24.499 37.986l-0.030 0.145-8.781 40.013 53.658-36.634c14.686-9.604 34.368-5.589 44.122 8.998 9.749 14.592 5.931 34.313-8.559 44.211l-53.18 36.309 44.553 7.053c17.455 2.765 29.367 19.153 26.603 36.608-2.765 17.459-19.153 29.367-36.612 26.603l-111.535-17.66-89.647 61.513v80.994l89.724 61.559 107.674-16.499c17.472-2.675 33.801 9.315 36.48 26.784 2.675 17.469-9.318 33.801-26.786 36.477l-39.991 6.128 51.366 35.092c14.596 9.969 18.342 29.881 8.371 44.473-9.967 14.593-29.879 18.341-44.471 8.372l-51.763-35.36 8.567 38.998 0.209 0.987 0.030 0.144c3.703 17.251-7.253 34.245-24.499 37.988-17.242 3.743-34.261-7.178-38.042-24.412l-0.030-0.144-23.322-106.255-86.916-59.635-67.465 39.283v107.267l74.522 79.452c12.075 12.872 11.447 33.088-1.399 45.187s-33.067 11.514-45.193-1.308l-0.090-0.095-27.84-29.684v58.57zM441.129 550.362l68.881 40.098 68.868-40.098v-77.577l-68.868-38.686-68.881 36.813v79.45z" />
<glyph unicode="&#xe910;" glyph-name="closet_base" data-tags="closet_base" horiz-adv-x="731" d="M670.474 918.344h-609.522c-22.451 0-40.635-18.183-40.635-40.634v-751.214c0-10.971 8.533-20.421 19.607-20.826 11.581-0.405 21.029 8.836 21.029 20.314v60.952h609.522v-60.44c0-10.971 8.533-20.421 19.607-20.826 11.581-0.41 21.031 8.836 21.031 20.314v751.724c0 22.45-18.183 40.634-40.638 40.634v0.002zM60.952 877.71h284.445v-650.141h-284.445v650.141zM386.031 227.569v650.141h284.443v-650.141h-284.443zM304.761 512.007c0-22.45-18.184-40.634-40.635-40.634s-40.635 18.183-40.635 40.634c0 22.449 18.184 40.634 40.635 40.634s40.635-18.183 40.635-40.634zM507.936 512.007c0-22.45-18.184-40.634-40.636-40.634s-40.635 18.183-40.635 40.634c0 22.449 18.184 40.634 40.635 40.634s40.636-18.183 40.636-40.634z" />
<glyph unicode="&#xe911;" glyph-name="at_sign_base" data-tags="at_sign_base" horiz-adv-x="633" d="M306.26 186.368c-61.44 0-114.688 12.288-163.84 40.96-45.056 24.576-81.92 61.44-106.496 110.592s-36.864 102.4-36.864 163.84c0 65.536 16.384 126.976 45.056 176.128 28.672 53.248 69.632 90.112 118.784 118.784s106.496 40.96 167.936 40.96c61.44 0 114.688-12.288 159.744-36.864s81.92-61.44 106.496-106.496c24.576-45.056 36.864-94.208 36.864-151.552 0-40.96-8.192-73.728-20.48-106.496s-28.672-53.248-53.248-73.728c-20.48-16.384-45.056-24.576-69.632-24.576s-45.056 4.096-61.44 16.384c-16.384 12.288-24.576 28.672-32.768 49.152-20.48-45.056-53.248-69.632-102.4-69.632-40.96 0-73.728 16.384-94.208 45.056-24.576 28.672-36.864 69.632-36.864 122.88 0 32.768 4.096 65.536 16.384 90.112s28.672 45.056 49.152 61.44c20.48 12.288 40.96 20.48 69.632 20.48 20.48 0 40.96-4.096 57.344-12.288s28.672-20.48 40.96-36.864l4.096 45.056h61.44v-196.608c0-49.152 12.288-73.728 40.96-73.728 20.48 0 36.864 12.288 49.152 40.96 12.288 24.576 20.48 61.44 20.48 98.304 0 49.152-8.192 90.112-28.672 122.88-20.48 36.864-49.152 61.44-81.92 81.92-45.056 24.576-81.92 36.864-131.072 36.864-53.248 0-98.304-12.288-139.264-36.864s-69.632-57.344-90.112-98.304c-20.48-40.96-32.768-90.112-32.768-143.36s8.192-98.304 28.672-135.168c20.48-36.864 49.152-65.536 86.016-86.016s77.824-28.672 126.976-28.672c40.96 0 81.92 8.192 118.784 24.576l8.192-61.44c-36.864-20.48-77.824-28.672-131.072-28.672zM314.452 620.544c-24.576 0-40.96-8.192-53.248-28.672s-20.48-45.056-20.48-77.824c0-32.768 8.192-57.344 20.48-77.824s32.768-28.672 53.248-28.672c24.576 0 40.96 8.192 53.248 28.672s20.48 45.056 20.48 77.824c0 32.768-8.192 57.344-20.48 77.824-12.288 16.384-32.768 28.672-53.248 28.672z" />
<glyph unicode="&#xe912;" glyph-name="advice_base" data-tags="advice_base" d="M876.294 480.213l-81.92-87.040-54.187 51.2 49.067 52.053h-26.027c-65.28 0-127.147-24.32-175.36-67.84v93.013c52.48 32 112.64 49.493 175.36 49.493h28.16l-49.067 52.053 54.613 51.2 79.36-84.48c29.013-31.147 28.587-79.36 0-109.653zM597.681 758.826l51.2 54.187-87.040 81.92c-30.293 29.013-78.507 29.013-109.653 0l-84.48-79.36 51.2-54.613 52.053 49.067v-702.72h74.667v700.587s52.053-49.067 52.053-49.067zM232.881 571.52l49.067 52.053-54.613 51.2-79.787-84.907c-28.587-31.147-28.587-78.933 0-109.227l81.92-87.040 54.187 51.2-49.067 52.053h20.48c63.573 0 125.013-23.467 172.373-64.853v91.733c-51.627 30.72-111.36 47.787-172.373 47.787h-22.187z" />
<glyph unicode="&#xe913;" glyph-name="notification_telephone_base" data-tags="notification_telephone_base" horiz-adv-x="975" d="M365.714 268.196h81.27v-81.267h-81.27v81.267zM243.81 186.93h81.27v81.267h-81.27v-81.267zM487.619 186.93h81.27v81.267h-81.27v-81.267zM243.81 308.83h81.27v81.267h-81.27v-81.267zM365.714 308.83h81.27v81.267h-81.27v-81.267zM487.619 308.83h81.27v81.267h-81.27v-81.267zM650.161 512c0-22.449-18.188-40.632-40.638-40.632h-81.267c-22.455 0-40.638 18.183-40.638 40.632 0 22.451-18.184 40.634-40.635 40.634h-81.27c-22.45 0-40.635-18.183-40.635-40.634 0-22.449-18.184-40.632-40.635-40.632h-81.27c-22.45 0-40.635 18.183-40.635 40.632 0 89.8 72.736 162.535 162.54 162.535h162.54c89.804 0 162.542-72.734 162.542-162.535zM609.523 512c0 32.609-12.698 63.186-35.655 86.245-22.962 23.059-53.638 35.656-86.249 35.656h-162.54c-32.61 0-63.188-12.698-86.248-35.656s-35.657-53.637-35.657-86.245h81.27c0 44.799 36.47 81.267 81.27 81.267h81.27c44.799 0 81.268-36.469 81.268-81.267h81.271zM934.604 796.435c0-89.8-72.738-162.535-162.538-162.535v-446.97c0-67.048-54.857-121.9-121.905-121.9h-487.621c-67.048 0-121.905 54.852-121.905 121.9v487.604c0 67.046 54.857 121.901 121.905 121.901h446.983c0 89.8 72.738 162.535 162.543 162.535 89.8 0 162.538-72.734 162.538-162.535zM731.427 638.979c-57.090 14.73-102.093 59.63-116.824 116.822h-452.064c-21.536 0-41.955-8.533-57.397-23.872s-23.873-35.859-23.873-57.396v-487.604c0-21.538 8.533-41.955 23.873-57.398 15.34-15.438 35.86-23.869 57.397-23.869h487.621c21.533 0 41.955 8.533 57.393 23.869 15.443 15.34 23.874 35.86 23.874 57.398v452.050zM828.039 766.367c0 22.754-11.683 38.297-25.805 46.322-11.074 6.704-24.99 9.752-38.805 9.752-6.705 0-10.567-0.508-14.731-1.117l6.91 46.322h68.774v20.419h-86.25l-11.683-86.55c6.705 0.812 14.731 1.93 24.99 1.93 36.064 0 51.61-16.66 51.912-39.922 0-24.178-19.705-39.11-42.667-39.11-16.355 0-31.086 5.588-38.502 9.955l-6.095-18.59c8.636-5.588 25.195-11.073 44.905-11.073 39.112 0.102 67.048 26.412 67.048 61.662v0z" />
<glyph unicode="&#xe914;" glyph-name="loading_circle_base" data-tags="loading_circle_base" d="M512.238 985.125c-65.422 0-118.519-53.096-118.519-118.518s53.097-118.519 118.519-118.519c65.424 0 118.518 53.097 118.518 118.519s-53.094 118.518-118.518 118.518zM512.238 831.525c-19.437 0-35.556 15.644-35.556 35.556s16.118 35.082 35.556 35.082c19.437 0 35.556-15.644 35.556-35.556s-16.119-35.082-35.556-35.082zM630.757 157.391c0-65.422-53.094-118.517-118.518-118.517-65.422 0-118.519 53.094-118.519 118.517s53.097 118.517 118.519 118.517c65.424 0 118.518-53.094 118.518-118.517zM866.845 629.57c-65.422 0-118.517-53.096-118.517-118.518s53.094-118.521 118.517-118.521 118.044 53.1 118.044 118.521c0 65.422-52.622 118.518-118.044 118.518zM866.845 475.496c-19.439 0-35.556 15.644-35.556 35.556 0 19.437 15.644 35.556 35.556 35.556 19.439 0 35.083-15.644 35.083-35.556 0-19.437-15.644-35.556-35.083-35.556zM276.149 511.051c0 65.422-53.097 118.518-118.519 118.518s-118.518-53.096-118.518-118.518c0-65.421 53.096-118.521 118.518-118.521s118.519 53.1 118.519 118.521zM122.075 511.051c0 19.437 15.644 35.556 35.556 35.556s35.556-16.119 35.556-35.556c0-19.437-15.644-35.556-35.556-35.556s-35.556 16.118-35.556 35.556zM763.023 378.308c-65.422 0-118.517-53.094-118.517-118.517s53.094-118.044 118.517-118.044c65.422 0 118.517 53.094 118.517 118.044 0 65.894-53.094 118.517-118.517 118.517zM763.023 225.186c-19.439 0-35.556 15.644-35.556 35.078 0 19.439 15.644 35.556 35.556 35.556s35.556-15.644 35.556-35.556c0-19.433-16.117-35.078-35.556-35.078zM261.453 879.881c-65.422 0-118.518-53.096-118.518-118.044 0-65.422 53.096-118.518 118.518-118.518s118.519 53.096 118.519 118.518c0 65.422-53.097 118.044-118.519 118.044zM261.453 726.755c-19.437 0-35.556 15.644-35.556 35.556s16.119 34.608 35.556 34.608c19.437 0 35.556-15.644 35.556-35.082s-16.118-35.082-35.556-35.082zM763.023 643.792c65.422 0 118.517 53.096 118.517 118.518s-53.094 118.044-118.517 118.044c-65.422 0-118.517-53.096-118.517-118.044 0-65.896 53.094-118.518 118.517-118.518zM763.023 796.918c19.439 0 35.556-15.644 35.556-35.082s-15.644-35.556-35.556-35.556c-19.911 0-35.556 15.644-35.556 35.556s16.117 35.082 35.556 35.082zM261.453 378.308c-65.422 0-118.518-53.094-118.518-118.517s53.096-118.044 118.518-118.044c65.422 0 118.519 53.094 118.519 118.044 0 65.894-53.097 118.517-118.519 118.517zM261.453 225.186c-19.437 0-35.556 15.644-35.556 35.078 0 19.439 15.644 35.556 35.556 35.556s35.556-15.644 35.556-35.556c0-19.433-16.118-35.078-35.556-35.078z" />
<glyph unicode="&#xe915;" glyph-name="mobile_check_base" data-tags="mobile_check_base" horiz-adv-x="780" d="M761.962 868.983l-186.153-186.148c-21.821-21.818-57.193-21.819-79.014-0.001l-92.574 92.565 50.281 50.285 81.8-81.791 175.377 175.374 50.283-50.284zM135.055 846.371c-25.247 0-45.714-20.467-45.714-45.714v-579.096c0-25.249 20.467-45.714 45.714-45.714h335.119c25.246 0 45.716 20.465 45.716 45.714v375.52h71.109v-375.52c0-64.522-52.307-116.829-116.826-116.829h-335.119c-64.521 0-116.826 52.307-116.826 116.829v579.096c0 64.521 52.304 116.825 116.826 116.825h249.468v-71.111h-249.468zM302.594 267.256c22.442 0 40.635 18.193 40.635 40.633s-18.193 40.633-40.635 40.633c-22.442 0-40.635-18.193-40.635-40.633s18.193-40.633 40.635-40.633z" />
<glyph unicode="&#xe916;" glyph-name="bank_cashier_base" data-tags="bank_cashier_base" horiz-adv-x="731" d="M426.667 471.468c-3.657 0-7.212-0.508-10.565-1.422l-87.569 87.566c10.667 16.050 16.864 35.351 16.864 55.973 0 56.075-45.511 101.585-101.588 101.585s-101.588-45.51-101.588-101.585c0-56.075 45.511-101.585 101.588-101.585 20.724 0 39.924 6.197 55.974 16.863l87.569-87.567c-0.914-3.35-1.422-6.905-1.422-10.562 0-22.45 18.184-40.638 40.635-40.638s40.635 18.183 40.635 40.638c0.102 22.55-18.083 40.733-40.533 40.733h-0.001zM243.81 552.736c-33.626 0-60.952 27.326-60.952 60.95s27.327 60.95 60.952 60.95c33.626 0 60.952-27.326 60.952-60.95s-27.327-60.95-60.952-60.95zM584.637 600.683l75.274 75.274c4.574-1.219 9.552-1.727 14.629-1.219 20.012 2.031 35.66 18.59 36.469 38.704 1.019 23.872-18.486 43.377-42.359 42.36-20.012-0.812-36.674-16.559-38.707-36.469-0.507-5.079 0-10.057 1.219-14.628l-85.943-85.94c-23.669 8.228-49.674 13.104-77.916 14.73v81.776c0 47.744-9.65 89.19-56.788 136.225-21.841 21.84-46.426 38.906-73.041 50.487-24.381 10.666-49.778 16.355-73.448 16.355h-203.073c-22.45 0-40.635-18.183-40.635-40.634v-731.407c0-22.45 18.184-40.633 40.635-40.633h609.525c22.45 0 40.633 18.183 40.633 40.633v162.636c0 112.148-25.8 196.973-76.595 251.929-14.731 15.847-31.393 29.155-49.879 39.821v0.001zM670.478 146.399h-609.525v731.406h203.174c39.212 0 83.302-20.52 117.74-54.958 41.346-41.446 44.8-74.562 44.8-107.578v-81.877c0-21.028 17.169-39.415 38.197-40.532 136.43-7.517 205.613-102.905 205.613-283.929v-162.533z" />
<glyph unicode="&#xe917;" glyph-name="transport_motorcycle_base" data-tags="transport_motorcycle_base" d="M657.866 723.861c-6.165 8.42-16.051 13.305-26.483 13.088l-25.826-0.538-0.021 0.517-24.542-1.036c-17.523-0.74-31.185-15.449-30.635-32.98 0.555-17.531 15.117-31.35 32.653-30.985l33.058 0.689 15.1-20.624h-44.275c-11.836 0-22.707-6.534-28.258-16.986-8.491-15.98-29.367-27.080-56.887-23.849-26.453 3.106-55.45 19.762-72.576 54.618-5.38 10.951-16.557 17.889-28.758 17.889h-165.833c-38.444 0-57.623-32.352-58.665-59.792-1.086-28.631 14.797-58.621 46.933-74.583 0.74-0.371 1.495-0.708 2.261-1.015 14.594-5.892 29.638-11.52 43.607-16.751 8.905-3.332 17.373-6.502 25.009-9.472 6.588-2.56 12.881-5.090 18.906-7.642l-19.839-22.263c-12.996 5.619-27.328 8.734-42.387 8.734-59.049 0-106.918-47.868-106.918-106.918s47.869-106.918 106.918-106.918c59.049 0 106.918 47.868 106.918 106.918 0 20.693-5.879 40.013-16.058 56.384l17.929 20.117 0.899-3.721c1.043-4.335 2.217-9.212 3.782-15.049 3.473-12.949 9.072-30.835 21.667-45.295 14.226-16.333 34.207-24.973 58.897-24.973h120.444c51.277 0 77.218 38.443 92.42 65.271 3.503 6.178 6.852 12.531 9.92 18.347l1.318 2.496c2.338 4.429 4.527 8.529 6.677 12.369l14.434-19.716c-14.391-18.214-22.98-41.22-22.98-66.231 0-59.051 47.868-106.918 106.918-106.918s106.918 47.868 106.918 106.918c0 59.051-47.868 106.918-106.918 106.918-10.799 0-21.227-1.604-31.057-4.582l-18.829 25.724c19.076 8.96 38.187 14.622 55.727 17.634 50.347 8.64 77.333 47.565 75.908 87.448-1.399 39.063-30.682 76.583-80.021 78.587-31.386 1.274-49.835 1.674-60.591 1.746-5.385 0.036-8.951-0.009-11.324-0.076-0.149-0.004-0.294-0.009-0.435-0.013-0.99-0.031-1.788-0.066-2.445-0.103l-1.037-0.068-0.461-0.038-0.222-0.020-0.111-0.011-0.055-0.005-0.055-0.006c-7.317-0.736-14.157-3.971-19.371-9.159l-1.37-1.363-19.981 27.287zM731.606 402.886l17.459-23.846c10.402-14.212 30.336-17.344 44.595-7.010 14.263 10.334 17.493 30.251 7.228 44.561l-0.875 1.199-12.211 16.683c16.721-5.867 28.71-21.79 28.71-40.512 0-23.701-19.217-42.918-42.918-42.918s-42.918 19.217-42.918 42.918c0 3.059 0.32 6.046 0.93 8.926zM242.965 436.234l-15.302-17.169c-11.624-13.043-10.639-32.998 2.214-44.83 12.852-11.836 32.82-11.174 44.861 1.485l1.303 1.37-0.032 0.030 17.245 19.349c0.048-0.832 0.072-1.668 0.072-2.509 0-23.701-19.215-42.918-42.918-42.918s-42.918 19.217-42.918 42.918c0 21.163 15.32 38.75 35.476 42.274zM250.394 607.083c-7.616 4.087-9.878 9.274-10.378 12.579h141.8c27.831-43.307 70.289-67.119 112.47-72.069 40.213-4.723 83.221 7.91 109.623 40.397h42.359c8.461 0 16.576 3.349 22.571 9.318l46.336 46.121c9.933-0.081 27.46-0.467 57.549-1.688 7.663-0.311 11.78-2.985 14.101-5.44 2.624-2.773 4.39-6.827 4.557-11.49 0.166-4.593-1.25-9.11-4.211-12.745-2.769-3.402-8.132-7.548-18.56-9.338-34.603-5.937-73.404-19.659-109.769-44.098-16.226-10.906-27.268-26.773-35.315-40.269-4.169-6.989-8.038-14.242-11.571-20.924l-1.37-2.594c-3.106-5.892-5.973-11.324-8.96-16.597-14.532-25.643-24.107-32.823-36.74-32.823h-120.444c-8.085 0-9.835 2.061-10.547 2.901l-0.090 0.107c-2.287 2.624-4.941 8.017-8.113 19.84-0.661 2.462-1.412 5.551-2.253 9.003-2.253 9.254-5.148 21.15-8.663 30.75-5.325 14.549-14.706 32.58-34.076 43.998-20.288 11.955-41.99 21.205-63.783 29.679-9.417 3.661-18.423 7.023-27.446 10.394-12.605 4.706-25.243 9.428-39.078 14.988z" />
<glyph unicode="&#xe918;" glyph-name="biometric_base" data-tags="biometric_base" horiz-adv-x="633" d="M229.994 916.904c-16.173-2.276-41.57-9.021-56.848-15.116-63.066-25.153-113.372-78.953-135.071-144.416-5.323-16.091-9.224-36.084-10.646-54.817l-1.097-14.181h71.599v7.477c0 18.245 8.777 48.884 19.505 68.063 21.658 38.725 56.889 65.991 101.871 78.913 11.215 3.21 17.392 3.82 40.35 3.82 30.517 0.040 44.902-2.804 67.982-13.45 24.706-11.419 51.362-33.768 66.479-55.71 14.547-21.171 25.194-50.712 27.998-77.653l1.179-11.459h70.095l-1.3 17.31c-2.276 31.086-14.466 70.014-30.151 96.386-34.418 57.905-89.112 97.361-154.9 111.665-17.636 3.86-59.896 5.608-77.044 3.17zM238.65 786.466c-20.683-4.063-44.089-21.496-54.126-40.31-10.362-19.464-10.321-19.017-10.362-157.257l-0.040-125.684-8.046-0.041c-26.331-0.040-48.315-8.94-64.366-26.089-5.567-5.973-12.15-15.033-14.548-20.153-4.226-8.899-23.568-85.982-25.762-102.727-1.463-10.928 1.95-29.784 7.477-41.204 2.479-5.159 19.749-33.197 38.4-62.293 36.409-56.886 48.437-71.88 67.495-84.314 13.491-8.777 33.89-16.257 50.794-18.612 17.026-2.355 237.633-2.438 254.171-0.083 14.872 2.116 34.661 8.655 45.716 15.038 27.385 15.887 50.142 46.119 57.495 76.351 4.267 17.637 24.625 160.222 24.625 172.495-0.039 13.205-4.876 34.743-10.928 48.435-13.005 29.423-40.555 54.127-72.455 65.018-4.876 1.666-40.877 10.524-80.009 19.627-39.091 9.143-71.599 17.067-72.209 17.635s-5.81 45.47-11.54 99.84c-7.152 67.413-11.5 102.197-13.735 109.47-8.452 27.307-32.223 48.843-60.465 54.776-10.321 2.194-36.653 2.194-47.583 0.081zM276.4 713.973c2.357-2.601 5.201-25.316 15.929-126.375l13.044-123.205 98.174-23.119c54.004-12.761 101.221-24.586 104.918-26.375 13.858-6.661 25.195-22.469 27.307-38.112 0.692-5.12-2.599-32.305-10.24-84.602-12.473-85.012-13.488-88.951-26.574-100.776-3.82-3.452-10.484-7.885-14.791-9.874-7.761-3.574-8.777-3.618-129.707-3.618-139.459 0-133.486-0.566-148.074 14.263-5.648 5.773-62.74 92.204-73.509 111.343-0.65 1.097 3.129 20.153 8.33 42.34 10.728 45.47 11.134 46.241 24.666 46.241h8.249v-72.611l7.192-1.019c3.982-0.566 19.789-0.809 35.149-0.527l27.957 0.488 0.813 196.958c0.853 192.528 0.935 197.039 4.145 199.395 5.12 3.739 23.406 3.21 27.022-0.812z" />
<glyph unicode="&#xe919;" glyph-name="smile_wink_base" data-tags="smile_wink_base" horiz-adv-x="828" d="M49.154 506.615h85.676v-285.415h-85.676v285.415zM690.991 227.075c-76.863-79.311-179.678-122.88-289.342-123.86h-24.478c-47 0-85.676 38.185-85.676 85.675v640.836c0 49.936 40.635 91.059 91.061 91.059 227.164 0 417.121-177.711 423.972-396.056 3.428-111.621-37.693-217.366-115.049-297.165h-0.488v-0.488zM629.302 286.799c61.196 63.156 93.511 146.871 91.063 234.992-5.388 172.816-156.667 312.831-338.299 312.831-2.937 0-5.385-2.448-5.385-5.385v-640.839h20.562c88.124 0 170.371 34.762 232.059 97.914v0.488zM92.236 810.633c-38.676 0-70.009-31.332-70.009-70.007s31.333-70.007 70.009-70.007c38.677 0 70.010 31.332 70.010 70.007s-31.333 70.007-70.010 70.007z" />
<glyph unicode="&#xe91a;" glyph-name="search_base" data-tags="search_base" horiz-adv-x="828" d="M303.134 899.51c-68.51-11.122-127.389-40.85-177.232-89.552-152.37-148.804-130.066-403.315 45.687-521.982 51.763-34.962 107.443-52.994 170.517-55.281 77.464-2.784 150.571 21.509 213.049 70.822l5.193 4.091 98.728-92.906c54.282-51.073 99.172-92.823 99.728-92.784 1.161 0.122 41.813 45.388 45.49 50.664 2.277 3.233-7.714 13.21-95.412 95.276-53.882 50.42-97.968 91.887-97.968 92.214s5.993 9.606 13.307 20.607c87.298 131.427 71.27 309.387-38.010 422.043-47.006 48.456-102.967 79.656-168.16 93.846-26.94 5.847-87.337 7.401-114.917 2.944zM394.428 826.028c91.134-15.13 167.719-80.557 199.219-170.232 14.668-41.791 18.466-98.18 9.47-141.444-31.617-152.4-182.827-242.693-328.882-196.32-87.857 27.931-157.966 109.792-173.875 203.108-3.957 23.308-3.997 68.943-0.080 92.006 8.874 52.055 31.417 97.281 67.831 135.964 37.653 40.074 87.177 67.226 140.019 76.753 21.385 3.844 63.674 3.926 86.298 0.164z" />
<glyph unicode="&#xe91b;" glyph-name="atm_base" data-tags="atm_base" horiz-adv-x="877" d="M127.269 916.044c-6.055-1.3-18.245-5.973-27.063-10.403-13.247-6.624-18.651-10.646-30.476-22.512-21.821-21.943-31.655-41.691-35.515-71.233-1.341-10.118-1.747-100.652-1.341-308.947 0.488-277.616 0.731-295.17 3.576-304.761 14.873-49.698 53.516-83.544 103.213-90.414 18.489-2.56 581.485-2.56 599.892 0 40.229 5.569 75.703 31.008 92.974 66.643 13.692 28.199 12.717 1.302 12.229 342.47l-0.444 304.396-4.593 13.531c-6.583 19.342-15.521 33.646-30.11 48.234s-28.93 23.528-48.235 30.11l-13.57 4.632-304.762 0.284c-254.619 0.244-306.55-0.081-315.774-2.032zM744.636 841.235c10.689-5.73 16.418-11.215 21.86-21.090l5.042-9.021 0.405-294.522c0.405-256.975 0.122-295.658-2.072-303.216-3.33-11.459-13.614-23.001-25.927-29.057l-9.669-4.754h-293.75c-284.891 0-294.034 0.122-302.12 3.252-10.931 4.184-22.512 14.955-27.429 25.517l-3.982 8.494v296.39l-0.040 296.391 4.389 8.777c5.201 10.403 16.823 21.171 26.657 24.666 6.176 2.194 45.064 2.479 303.38 2.235l296.271-0.325 6.988-3.739zM208.336 770.896c-6.746-3.495-12.638-8.168-16.213-12.8-11.012-14.466-10.809-10.89-10.281-158.761l0.488-133.607 4.754-9.712c2.601-5.324 7.843-12.312 11.622-15.564 13.816-11.825-1.707-11.132 243.484-11.132 251.329 0 231.010-1.18 246.492 14.263 15.077 15.075 14.263 6.217 14.263 159.288 0 153.031 0.814 144.173-14.263 159.249-15.482 15.482 4.959 14.303-247.467 14.303h-222.192l-10.687-5.526zM630.129 602.871v-100.734h-375.875v201.468h375.875v-100.734zM619.967 304.041v-66.028h84.685v132.062h-84.685v-66.033zM181.476 304.855v-36.367h297.976v72.777h-297.976v-36.411z" />
<glyph unicode="&#xe91c;" glyph-name="notification_cashier_base" data-tags="notification_cashier_base" horiz-adv-x="975" d="M361.244 504.38c7.010-8.733 5.588-21.533-3.15-28.545l-81.27-60.948c-3.759-2.945-8.229-4.471-12.698-4.471s-8.94 1.526-12.698 4.471l-81.27 60.948c-8.736 7.012-10.159 19.812-3.15 28.545 7.010 8.737 19.81 10.16 28.546 3.15l48.254-35.757v182.445c0 11.174 9.143 20.317 20.317 20.317s20.317-9.142 20.317-20.317v-182.445l48.254 35.757c8.736 7.010 21.536 5.588 28.546-3.15zM774.909 836.967l-44.7-62.169v-0.61h59.938v61.052c0 9.55 0.302 19.098 0.809 28.749h-0.809c-5.691-10.667-10.162-18.59-15.238-27.021v-0.001zM934.604 796.435c0-89.8-72.738-162.535-162.543-162.535v-446.97c0-67.048-54.857-121.9-121.905-121.9h-487.617c-67.048 0-121.905 54.852-121.905 121.9v487.604c0 67.046 54.857 121.901 121.905 121.901h446.984c0 89.8 72.738 162.535 162.538 162.535 89.805 0 162.543-72.734 162.543-162.535zM731.428 638.979c-57.090 14.73-102.093 59.63-116.824 116.822h-452.065c-21.536 0-41.955-8.533-57.397-23.872s-23.873-35.859-23.873-57.396v-487.604c0-21.538 8.533-41.955 23.873-57.398 15.34-15.438 35.86-23.869 57.397-23.869h487.617c21.538 0 41.96 8.533 57.398 23.869 15.443 15.34 23.874 35.86 23.874 57.398v452.050zM839.011 774.188h-25.6v113.673h-26.717l-81.574-116.822v-16.254h85.026v-49.777h23.367v49.777h25.6v19.402l-0.102 0.001zM225.625 281.708c10.057 0 16.762-2.033 21.333-4.369l5.079 21.333c-6.4 2.74-16.965 5.076-27.327 5.076-39.212 0-62.171-25.902-62.171-59.426 0-34.64 22.755-57.193 57.6-57.193 14.019 0 25.702 2.95 31.695 5.691l-3.86 20.929c-5.486-2.341-12.597-4.369-22.248-4.369-19.302 0-34.235 13.102-34.235 36.059-0.305 20.421 12.597 36.269 34.133 36.269v0zM359.415 216.289c0-10.060 0.508-20.012 1.829-26.819h-25.498l-2.031 12.39h-0.711c-6.705-8.733-18.388-14.931-33.016-14.931-22.45 0-35.15 16.252-35.15 33.319 0 28.038 24.99 42.462 66.336 42.257v1.829c0 7.314-2.946 19.505-22.755 19.505-10.971 0-22.45-3.452-30.070-8.226l-5.486 18.388c8.229 5.076 22.755 9.85 40.431 9.85 35.86 0 46.121-22.752 46.121-47.338v-40.224zM331.886 244.123c-20.012 0.2-39.010-3.862-39.010-20.929 0-10.971 7.111-16.048 16.050-16.048 11.479 0 19.505 7.314 22.248 15.34 0.711 2.028 0.711 4.164 0.711 6.198v15.438zM403.505 349.463c-9.448 0-15.848-6.705-15.848-15.34 0-8.226 6.197-15.136 15.645-15.136 9.854 0 16.050 6.91 16.050 15.136-0.203 8.636-6.197 15.34-15.848 15.34zM389.282 191.094h28.241v111.743h-28.241v-111.743zM543.797 301.213h-30.783l-12.39-20.621c-3.457-5.691-6.705-11.479-9.855-17.676h-0.507c-3.251 5.686-6.401 11.274-10.058 17.169l-13.308 21.129h-31.492l37.384-54.857-38.807-56.886h31.289l12.902 22.245c3.454 6.198 6.908 11.683 10.057 18.183h0.508c3.252-6.198 6.402-12.19 10.059-18.183l13.512-22.245h32.202l-38.098 58.105 37.386 53.638zM648.328 216.289c0-10.060 0.512-20.012 1.829-26.819h-25.498l-2.028 12.39h-0.712c-6.705-8.733-18.388-14.931-33.017-14.931-22.45 0-35.148 16.252-35.148 33.319 0 28.038 24.99 42.462 66.336 42.257v1.829c0 7.314-2.945 19.505-22.757 19.505-10.971 0-22.45-3.452-30.071-8.226l-5.486 18.388c8.231 5.076 22.757 9.85 40.433 9.85 35.86 0 46.119-22.752 46.119-47.338v-40.224zM620.801 244.123c-20.012 0.2-39.010-3.862-39.010-20.929 0-10.971 7.109-16.048 16.048-16.048 11.479 0 19.505 7.314 22.25 15.34 0.712 2.028 0.712 4.164 0.712 6.198v15.438z" />
<glyph unicode="&#xe91d;" glyph-name="math_base" data-tags="math_base" horiz-adv-x="877" d="M699.62 897.707v-138.666h128v-74.667h-128v-128h-74.665v128h-138.67v74.667h138.67v138.666h74.665zM827.62 300.372h-341.335v74.67h341.335v-74.67zM486.285 129.707h341.335v74.665h-341.335v-74.665zM102.286 126.722l98.134 98.13 90.454-90.45 52.906 52.905-90.454 90.455 90.454 90.45-52.906 52.91-90.454-90.455-98.134 98.135-52.906-53.335 98.134-98.135-98.134-98.13 52.906-52.91v0.43zM59.62 684.373h341.334v74.667h-341.334v-74.667z" />
<glyph unicode="&#xe91e;" glyph-name="calendar_month_base" data-tags="calendar_month_base" horiz-adv-x="780" d="M638.294 791.64h-52.175v86.794h-71.192v-86.794h-252.587v86.794h-71.192v-86.794h-49.25c-64.366 0-116.541-52.174-116.541-116.538v-413c0-64.366 52.175-116.536 116.541-116.536h496.397c64.366 0 116.541 52.17 116.541 116.536v413c0 64.364-52.175 116.538-116.541 116.538zM684.13 261.615c0-25.356-20.48-45.836-45.836-45.836h-496.397c-25.356 0-45.836 20.48-45.836 45.836v413.488c0 25.356 20.48 45.835 45.836 45.835h49.25v-69.728h71.192v69.728h252.587v-69.728h71.192v69.728h52.175c25.356 0 45.836-20.48 45.836-45.835v-413.488zM593.92 544.424v-71.19h-408.625v71.19h408.625z" />
<glyph unicode="&#xe91f;" glyph-name="exchange_base" data-tags="exchange_base" horiz-adv-x="877" d="M642.683 806.513h-406.676c-28.282 0-50.712-22.917-50.712-50.711v-162.86l45.836 45.835 50.225-50.223-72.655-72.653c-29.745-29.744-78.019-29.744-107.764 0l-72.655 72.653 50.225 50.223 35.596-35.595v153.108c0 67.289 54.613 121.901 121.905 121.901h406.188c67.291 0 121.905-54.612 121.905-121.901v-81.43h-71.192v81.43c0 28.281-22.918 50.711-50.712 50.711l0.488-0.488zM800.184 385.225l-35.596 35.593v-153.109c0-67.287-54.613-121.9-121.905-121.9h-407.163c-67.291 0-121.905 54.613-121.905 121.9v81.432h71.192v-81.432c0-28.282 22.918-50.708 50.712-50.708h406.188c28.282 0 50.712 22.913 50.712 50.708v162.861l-45.836-45.832-50.225 50.221 72.655 72.653c29.745 29.744 78.019 29.744 107.764 0l72.655-72.653-50.225-50.221h0.488l0.488 0.488zM398.872 728.009h81.432v-46.322c19.506-1.95 38.036-6.339 55.59-13.653v-63.389c-23.893 10.727-47.787 16.091-71.681 16.091-17.067 0-29.745-2.926-39.010-8.777-8.777-5.851-13.166-14.14-13.166-25.355 0-9.265 4.389-17.554 13.166-23.893 9.265-6.339 25.844-13.165 50.225-20.967 27.796-9.264 48.276-21.454 61.929-37.545 14.141-16.091 20.968-35.595 20.968-59.488 0-31.694-11.215-57.052-33.646-76.064-12.19-10.24-26.819-17.554-44.375-22.43v-55.101h-81.432v51.688c-22.918 2.926-44.373 9.265-64.853 18.042v65.825c33.158-15.603 62.903-23.407 89.722-23.407 18.042 0 31.208 2.928 40.472 9.266s14.141 15.116 14.141 26.819c0 6.826-1.95 12.678-5.851 17.554-3.413 5.363-10.24 10.24-19.992 15.116-9.265 4.876-23.406 10.24-41.448 16.579-24.869 8.289-44.373 20.479-57.539 36.083s-19.505 34.132-19.505 55.587c0 31.207 11.215 56.075 34.133 74.116 8.777 7.314 19.017 13.165 30.72 17.554v56.074z" />
<glyph unicode="&#xe920;" glyph-name="security_card_base" data-tags="security_card_base" horiz-adv-x="828" d="M150.348 674.536c0 11.174 9.143 20.317 20.317 20.317h81.27c11.174 0 20.317-9.143 20.317-20.317s-9.143-20.317-20.317-20.317h-81.27c-11.174 0-20.317 9.142-20.317 20.317zM373.841 654.218h81.27c11.174 0 20.317 9.142 20.317 20.317s-9.143 20.317-20.317 20.317h-81.27c-11.174 0-20.317-9.143-20.317-20.317s9.143-20.317 20.317-20.317zM577.013 654.218h81.271c11.176 0 20.319 9.142 20.319 20.317s-9.143 20.317-20.319 20.317h-81.271c-11.171 0-20.314-9.143-20.314-20.317s9.143-20.317 20.314-20.317zM170.667 532.317h81.27c11.174 0 20.317 9.143 20.317 20.317s-9.143 20.317-20.317 20.317h-81.27c-11.174 0-20.317-9.142-20.317-20.317s9.143-20.317 20.317-20.317zM373.841 532.317h81.27c11.174 0 20.317 9.143 20.317 20.317s-9.143 20.317-20.317 20.317h-81.27c-11.174 0-20.317-9.142-20.317-20.317s9.143-20.317 20.317-20.317zM577.013 532.317h81.271c11.176 0 20.319 9.143 20.319 20.317s-9.143 20.317-20.319 20.317h-81.271c-11.171 0-20.314-9.142-20.314-20.317s9.143-20.317 20.314-20.317zM678.604 816.753h-528.255c-67.352 0-121.905-54.551-121.905-121.901v-284.436h40.635v284.436c0 44.9 36.369 81.267 81.27 81.267h528.255c44.9 0 81.267-36.368 81.267-81.267v-284.436h40.638v284.436c0 67.35-54.555 121.901-121.905 121.901zM759.87 369.782h40.638v-40.636c0-67.35-54.555-121.9-121.905-121.9h-528.255c-67.352 0-121.905 54.55-121.905 121.9v40.636h731.426zM759.87 329.147h-690.791c0-44.9 36.369-81.267 81.27-81.267h528.255c44.9 0 81.267 36.367 81.267 81.267z" />
<glyph unicode="&#xe921;" glyph-name="card_base" data-tags="card_base" horiz-adv-x="877" d="M721.188 837.232h-564.662c-69.73 0-126.293-56.562-126.293-126.29v-397.886c0-69.725 56.564-126.288 126.293-126.288h564.662c69.73 0 126.293 56.564 126.293 126.288v397.886c0 69.728-56.564 126.29-126.293 126.29zM774.339 313.056c0-29.257-23.893-53.146-53.15-53.146h-564.662c-29.257 0-53.15 23.888-53.15 53.146v397.886c0 29.257 23.893 53.149 53.15 53.149h564.662c29.257 0 53.15-23.892 53.15-53.149v-397.886zM194.073 670.959h121.905v-71.19h-121.905v71.19z" />
<glyph unicode="&#xe922;" glyph-name="user_deal_base" data-tags="user_deal_base" horiz-adv-x="877" d="M328.786 814.323l-234.057-238.933-48.762 48.762 238.933 238.933 43.886-48.762zM714.005 590.018c48.762-48.762 48.762-126.781 0-175.543 0 0-4.876-4.876-4.876-4.876 14.629-48.762-9.752-107.276-58.514-136.533l-126.781-63.39c-9.752-4.876-24.381-9.752-34.133-9.752-4.876-4.876-4.876-4.876-9.752-9.752-39.010-39.010-107.276-39.010-146.286 0l-141.41 141.41c-39.010 29.257-43.886 78.019-24.381 121.905-29.257 53.638-19.505 126.781 29.257 175.543l48.762 48.762c102.4 102.4 287.695 97.524 390.095-4.876l78.019-82.895zM426.31 282.818l-141.41 141.41c-14.629 14.629-34.133 14.629-43.886 0-14.629-14.629-14.629-34.133 0-43.886l141.41-141.41c14.629-14.629 34.133-14.629 43.886 0 9.752 9.752 9.752 29.257 0 43.886zM626.234 404.723v0c0 0-4.876 4.876-4.876 4.876l-92.648 97.524c0 0-4.876 0-4.876 0l-58.514-24.381c-53.638-19.505-117.029-9.752-156.038 34.133-24.381 24.381-19.505 63.39 4.876 82.895l112.152 82.895c-48.762 0-92.648-19.505-126.781-53.638l-48.762-48.762c-19.505-19.505-29.257-53.638-19.505-78.019 34.133 9.752 78.019 4.876 107.276-24.381l141.41-141.41c14.629-14.629 24.381-34.133 29.257-53.638l112.152 58.514c19.505 4.876 29.257 43.886 4.876 63.39zM665.243 541.256l-82.895 82.895c-29.257 29.257-78.019 34.133-112.152 9.752l-97.524-73.143c19.505-9.752 43.886-14.629 63.39-4.876l58.514 24.381c29.257 9.752 58.514 4.876 82.895-14.629l87.771-87.771c19.505 9.752 19.505 43.886 0 63.39zM592.101 863.085l-48.762-48.762 238.933-238.933 48.762 48.762-238.933 238.933z" />
<glyph unicode="&#xe923;" glyph-name="card_group_base" data-tags="card_group_base" horiz-adv-x="877" d="M561.006 182.38h-406.675c-67.291 0-121.905 54.608-121.905 121.9v276.472c0 67.289 54.614 121.901 121.905 121.901h406.187c67.291 0 121.905-54.611 121.905-121.901v-276.472c0-67.291-54.613-121.9-121.905-121.9h0.488zM154.331 631.463c-27.794 0-50.712-22.918-50.712-50.711v-276.472c0-27.794 22.918-50.712 50.712-50.712h406.187c27.794 0 50.712 22.918 50.712 50.712v276.472c0 27.793-22.918 50.711-50.712 50.711h-406.187zM260.145 575.388h-97.524v-71.19h97.524v71.19zM723.383 769.942c28.282 0 50.712-22.917 50.712-50.711v-276.472c0-20.967-12.678-38.52-30.232-46.32v-73.63c57.539 9.752 101.425 59.977 101.425 120.438v276.472c0 67.289-54.613 121.901-121.905 121.901h-406.187c-48.762 0-91.185-28.768-110.69-70.215 182.857 0 344.747-0.975 516.877-0.975v-0.488z" />
<glyph unicode="&#xe924;" glyph-name="mobile_add_base" data-tags="mobile_add_base" horiz-adv-x="731" d="M526.385 552.716v-325.23c0-28.282-22.92-50.712-50.714-50.712h-325.242c-28.282 0-50.712 22.918-50.712 50.712v569.032c0 28.281 22.918 50.711 50.712 50.711h243.81v71.19h-243.81c-67.291 0-121.905-54.612-121.905-121.901v-569.032c0-67.291 54.613-121.905 121.905-121.905h325.242c67.293 0 121.906 54.613 121.906 121.905v325.23h-71.192zM353.767 308.913c0-22.43-18.042-40.472-40.472-40.472s-40.472 18.042-40.472 40.472c0 22.43 18.042 40.472 40.472 40.472s40.472-18.042 40.472-40.472zM521.509 809.683v108.736h71.192v-108.736h110.202v-71.19h-110.202v-108.736h-71.192v108.736h-106.79v71.19h106.79z" />
<glyph unicode="&#xe925;" glyph-name="mobile_base" data-tags="mobile_base" horiz-adv-x="585" d="M333.287 308.913c0-22.43-18.042-40.472-40.472-40.472-5.851 0-10.727 0.975-15.603 3.413-14.629 6.339-24.869 20.48-24.869 37.547s10.24 31.208 24.869 37.547c4.876 1.95 10.24 3.413 15.603 3.413 22.43 0 40.472-18.042 40.472-40.472v-0.975zM577.097 796.518v-569.033c0-67.291-54.613-121.905-121.905-121.905h-325.242c-67.291 0-121.905 54.613-121.905 121.905v569.033c0 67.289 54.613 121.901 121.905 121.901h325.242c67.291 0 121.905-54.612 121.905-121.901zM505.905 796.518c0 28.281-22.918 50.71-50.712 50.71h-325.242c-14.141 0-26.819-5.851-36.084-15.116s-15.116-21.942-15.116-36.082v-569.033c0-14.141 5.851-26.819 15.116-36.084s21.943-15.116 36.084-15.116h325.242c28.282 0 50.712 22.918 50.712 50.712v570.008z" />
<glyph unicode="&#xe926;" glyph-name="key_base" data-tags="key_base" d="M868.002 353.527l74.667 0.085-0.252 194.918h-4.169v0.209h-415.462c-1.741 40.371-6.199 78.437-12.77 106.29-7.104 33.041-29.376 55.292-61.854 62.481-35.772 8.917-86.874 13.833-143.876 13.833-57.105 0-108.207-4.915-142.874-13.602-33.626-7.458-55.979-29.918-62.707-62.272-8.606-36.207-13.751-89.833-13.751-143.457s5.146-107.23 13.521-142.481c6.959-33.374 29.333-55.834 61.939-63.002 35.686-8.96 86.793-13.875 143.876-13.875s108.169 4.915 142.874 13.623c33.626 7.415 56 29.875 62.729 62.251 6.562 27.584 11.068 65.374 12.86 105.54h222.451v-77.082h74.667v77.082h47.97l0.162-120.542zM437.269 385.775l-1.54-4.915c0 0-1.105-0.875-5.666-1.916-29.542-7.377-75.375-11.627-125.773-11.627s-96.23 4.25-126.771 11.874c-3.477 0.751-4.582 1.626-4.604 1.626l-1.562 4.958c-7.228 30.46-11.729 78.835-11.729 126.229s4.501 95.79 11.708 126.207l1.54 4.915c0 0 1.105 0.896 5.666 1.937 29.478 7.377 75.311 11.605 125.751 11.605 50.355 0 96.209-4.228 126.771-11.853 3.52-0.772 4.625-1.647 4.625-1.647 0.021-0.021 0.73-0.977 1.353-3.959l0.23-0.998c7.206-30.417 11.708-78.791 11.708-126.207s-4.48-95.812-11.708-126.229zM271.258 550.899h74.667v-74.667h-74.667v74.667z" />
<glyph unicode="&#xe927;" glyph-name="check_base" data-tags="check_base" horiz-adv-x="926" d="M843.697 723.252l-444.519-444.52c-37.689-37.688-98.795-37.688-136.483 0l-180.392 180.395 50.283 50.283 180.392-180.395c9.918-9.918 25.998-9.918 35.917 0l444.519 444.52 50.283-50.283z" />
<glyph unicode="&#xe928;" glyph-name="bank_check_book_base" data-tags="bank_check_book_base" d="M890.039 260.91h-756.078c-48.538 0-87.741 39.206-87.741 87.741v326.699c0 48.538 39.206 87.741 87.741 87.741h756.078c48.538 0 87.741-39.206 87.741-87.741v-326.699c0-48.067-39.206-87.741-87.741-87.741zM133.973 681.415c-3.269 0-6.074-2.806-6.074-6.074v-326.699c0-3.27 2.806-6.074 6.074-6.074h756.078c3.266 0 6.072 2.806 6.072 6.074v326.699c0 3.269-2.806 6.074-6.072 6.074h-756.078zM803.235 622.152h-582.456v-81.681h582.456v81.681zM803.235 482.14h-291.23v-81.681h291.23v81.681z" />
<glyph unicode="&#xe929;" glyph-name="bank_cash_flow_base" data-tags="bank_cash_flow_base" horiz-adv-x="780" d="M373.382 514.16h-284.255v71.111h284.255v-71.111zM373.345 390.698h-364.435v71.111h364.435v-71.111zM624.541 800.391v78.246h-71.114v-85.568c-36.493-9.157-65.863-26.152-88.111-50.985-24.229-26.483-36.344-58.319-36.344-95.508 0-38.88 10.706-70.716 32.118-95.508 21.974-24.229 57.194-44.514 105.649-60.855 47.899-15.777 81.14-31.836 99.738-48.177 19.159-15.777 28.735-36.344 28.735-61.7 0-29.862-10.986-52.965-32.963-69.305-21.411-15.779-51.839-23.669-91.282-23.669-49.020 0-98.889 14.37-149.601 43.106v-70.997c38.571-20.607 82.592-32.295 132.061-35.065v-79.043h71.114v81.193c45.485 6.797 81.154 24.249 107.013 52.356 26.487 28.735 39.726 64.234 39.726 106.496 0 40.007-12.395 72.688-37.191 98.044-24.225 25.92-63.668 47.614-118.326 65.081-41.136 12.96-70.437 27.047-87.903 42.26-16.906 15.214-25.356 35.217-25.356 60.009 0 27.61 10.142 48.74 30.427 63.39 20.285 15.214 48.46 22.821 84.519 22.821 42.828 0 82.549-11.269 119.174-33.808v67.617c-31.476 17.986-68.837 27.842-112.084 29.569z" />
<glyph unicode="&#xe92a;" glyph-name="recycle_base" data-tags="recycle_base" horiz-adv-x="731" d="M343.262 199.729l-1.422 4.164c-10.057 30.276-12.902 62.883-8.127 94.476s17.067 61.967 35.555 87.869l81.169 113.674 119.468-64.302c6.095-3.252 12.698-4.876 19.3-4.876 9.143 0 18.286 3.15 25.702 9.143 12.698 10.362 17.983 27.427 13.205 43.172l-121.905 406.338c-5.281 17.574-21.431 28.951-38.905 28.951-3.86 0-7.822-0.508-11.683-1.727l-406.35-121.901c-15.746-4.673-27.124-18.488-28.75-34.843s6.705-32.101 21.13-39.923l97.727-52.62-22.45-31.491c-41.448-58.005-59.53-128.91-50.895-199.613 8.635-70.705 43.174-135.207 97.219-181.633l114.997-98.538c7.517-6.5 16.965-9.752 26.412-9.752 7.924 0 15.746 2.238 22.654 6.91 15.238 10.157 21.74 29.257 15.95 46.524h-0.002zM303.338 191.098l1.422-4.169-114.997 98.538c-95.898 82.183-113.169 223.995-39.721 326.798l49.27 68.976-138.362 74.563 406.35 121.901 121.906-406.337-150.96 81.267-101.993-142.829c-45.308-63.386-57.498-144.755-32.914-218.707h0.001zM711.11 349.467v-203.171c0-22.348-18.286-40.633-40.633-40.633h-365.716c16.254 0 31.898 4.774 45.308 13.814 10.26 6.91 18.793 16.155 24.99 26.819h295.316c0 0 0.102 0 0.102 0.102v203.069c0 0 0 0.102-0.102 0.102h-276.421c2.641 4.467 5.384 8.938 8.431 13.205l19.607 27.429h248.485c22.348-0.102 40.633-18.388 40.633-40.736v0z" />
<glyph unicode="&#xe92b;" glyph-name="shopping_cart_base" data-tags="shopping_cart_base" horiz-adv-x="877" d="M816.645 750.433c-22.689 29.577-57.534 46.188-94.813 46.188l-508.889 4.052-31.198 117.495h-144.645v-70.902h90.352l42.948-162.062h0.81l63.206-241.47c15.801-49.43 61.585-82.656 113.852-82.656h320.485c54.701 0 102.103 36.059 115.473 87.923l52.673 202.576c8.914 34.438 1.624 70.497-20.256 98.857zM768.429 669.402l-52.673-202.578c-5.266-20.259-24.308-34.439-46.592-34.439h-320.49c-21.474 0-40.112 13.371-45.784 31.603l-63.611 239.852-6.888 26.335 489.85-4.052c15.394 0 29.574-6.888 38.892-18.637 4.862-6.482 12.561-19.853 8.104-37.68l-0.809-0.405zM354.348 331.907c-62.396 0-112.637-50.644-112.637-113.040 0-62.391 50.646-113.035 112.637-113.035s113.042 50.644 113.042 113.035c0 62.396-50.646 113.040-113.042 113.040zM354.348 177.137c-23.095 0-41.732 18.637-41.732 42.14 0 23.498 18.638 42.135 41.732 42.135s42.137-18.637 42.137-42.135c0-23.503-18.637-42.14-42.137-42.14zM650.118 331.907c-62.396 0-113.040-50.644-113.040-113.040 0-62.391 50.644-113.035 113.040-113.035s112.64 50.644 112.64 113.035c0 62.396-50.649 113.040-112.64 113.040zM650.118 177.137c-23.094 0-42.135 18.637-42.135 42.14 0 23.498 18.637 42.135 42.135 42.135 23.503 0 41.735-18.637 41.735-42.135 0-23.503-18.642-42.14-41.735-42.14z" />
<glyph unicode="&#xe92c;" glyph-name="receipt_base" data-tags="receipt_base" d="M146.285 841.87v-35.778h40.594l0.427-280.767 0.427-280.771 4.571-13.015c14.294-40.682 44.099-69.3 84.815-81.491 9.143-2.74 23.589-2.955 229.18-3.443 240.581-0.546 231.131-0.883 255.576 9.050 28.828 11.766 53.482 36.269 65.614 65.219 10.055 24.044 9.601 9.143 9.601 310.482v274.735h40.624v71.525h-731.429v-35.747zM765.562 532.303c0-273.608 0-273.822-3.384-282.873-4.54-12.098-16.213-23.801-28.311-28.311-9.021-3.384-10.118-3.384-221.867-3.384s-212.846 0-221.867 3.384c-12.099 4.51-23.771 16.213-28.312 28.311-3.383 9.050-3.383 9.265-3.383 282.873v273.789h507.124v-273.789zM349.47 679.315v-35.748h325.058v71.525h-325.058v-35.778zM349.47 516.792v-35.747h325.058v71.493h-325.058v-35.745zM349.47 354.263v-35.777h162.53v71.524h-162.53v-35.747z" />
<glyph unicode="&#xe92d;" glyph-name="desktop_base" data-tags="desktop_base" d="M815.582 894.49h-605.602c-67.644 0-122.667-55.023-122.667-122.667v-350.332c0-67.627 55.023-122.667 122.667-122.667h605.602c67.627 0 122.667 55.040 122.667 122.667v350.332c0 67.644-55.040 122.667-122.667 122.667zM863.582 421.487c0-26.458-21.542-48-48-48h-605.602c-26.458 0-48 21.542-48 48v350.336c0 26.458 21.542 48 48 48h605.602c26.458 0 48-21.542 48-48v-350.336zM562.897 744.414h74.667v-74.667h-74.667v74.667zM713.459 744.614h74.667v-74.667h-74.667v74.667zM713.391 594.172h74.667v-74.667h-74.667v74.667zM908.8 135.659c3.708-12.565 7.121-26.97 10.295-42.364h-76.399c-1.83 7.778-3.678 15.010-5.513 21.239-1.22 4.48-1.813 5.325-1.818 5.333-0.017 0.017-4.241 3.959-19.806 6.622-73.728 14.635-183.654 22.822-303.561 22.822-119.906 0.004-229.833-8.183-301.594-22.455-16.7-3.021-21.611-6.865-22.135-7.313 0.004-0.064-0.32-0.755-0.687-2.206l-0.375-1.481-0.435-1.463c-1.835-6.178-3.678-13.363-5.504-21.099h-76.399c3.187 15.437 6.613 29.845 10.33 42.364 8.533 33.707 33.28 55.893 80.64 64.427 77.227 15.36 191.573 23.893 316.16 23.893s238.933-8.533 316.16-23.893c47.36-8.107 71.684-30.72 80.64-64.427z" />
<glyph unicode="&#xe92e;" glyph-name="wifi_base" data-tags="wifi_base" horiz-adv-x="877" d="M85.090 565.379c84.76 100.92 211.766 164.975 353.766 164.975s269.007-64.055 353.765-164.975l54.457 45.734c-97.694 116.319-244.331 190.352-408.222 190.352-163.892 0-310.527-74.033-408.22-190.352l54.454-45.734zM438.89 222.535c28.053 0 50.792 22.743 50.792 50.795s-22.74 50.795-50.792 50.795c-28.052 0-50.793-22.743-50.793-50.795s22.741-50.795 50.793-50.795zM438.876 581.168c-95.825 0-181.554-43.079-238.944-111.054l-54.335 45.875c70.324 83.294 175.631 136.29 293.279 136.29s222.956-52.996 293.28-136.29l-54.335-45.875c-57.393 67.975-143.121 111.054-238.945 111.054zM314.010 373.933c30.023 35.547 74.807 58.028 124.877 58.028s94.852-22.481 124.874-58.028l54.331 45.885c-42.959 50.86-107.315 83.254-179.205 83.254s-136.247-32.394-179.203-83.254l54.327-45.885z" />
<glyph unicode="&#xe92f;" glyph-name="configuration_base" data-tags="configuration_base" horiz-adv-x="780" d="M389.852 674.127c-89.722 0-162.377-72.653-162.377-162.372s72.655-162.373 162.377-162.373 162.376 72.655 162.376 162.373c0 89.719-72.654 162.372-162.376 162.372zM389.852 420.087c-50.712 0-91.672 40.957-91.672 91.668s40.96 91.67 91.672 91.67c50.712 0 91.184-40.959 91.184-91.67s-40.959-91.668-91.184-91.668zM729.722 450.319c-12.19 7.312-21.455 23.89-20.48 45.345 0 5.364 0 10.728 0 16.091s0 10.728 0 16.091c-0.975 21.455 7.802 38.521 20.48 45.348 36.571 20.967 48.762 67.777 27.794 103.859l-40.472 70.215c-20.968 36.57-67.779 48.76-103.863 27.793-12.678-7.314-31.208-6.339-49.737 5.364-8.777 5.851-18.042 11.215-27.307 15.603-19.017 9.752-29.257 25.843-29.257 40.471 0 41.934-34.132 76.066-76.068 76.066h-81.432c-41.935 0-76.069-34.132-76.069-76.066 0-14.141-10.24-30.232-29.257-40.471-9.265-4.876-18.53-10.24-27.307-15.603-18.042-11.702-37.059-12.19-49.737-5.364-36.571 20.967-82.895 8.777-103.863-27.793l-40.473-70.215c-20.968-36.57-8.777-82.893 27.794-103.859 12.19-7.314 21.455-23.893 20.48-45.348 0-5.363 0-10.727 0-15.603s0-10.727 0-15.603c0.975-21.454-7.802-38.52-20.48-45.345-36.572-20.968-48.762-67.779-27.794-103.863l40.473-70.212c20.968-36.571 67.779-48.762 103.863-27.794 12.19 7.314 31.208 6.339 49.737-5.364 8.777-5.851 18.042-11.215 27.307-16.091 19.017-9.752 29.257-25.844 29.257-40.472 0-41.935 34.133-76.064 76.069-76.064h81.432c41.935 0 76.068 34.128 76.068 76.064 0 14.141 10.24 30.232 29.257 40.472 9.265 4.876 18.53 10.24 27.307 16.091 18.042 11.703 37.059 12.19 49.737 5.364 36.571-20.968 82.895-8.777 103.863 27.794l40.472 70.212c20.968 36.571 8.777 82.895-27.794 103.863v-0.975zM638.537 511.755c0-4.388 0-8.289 0-12.19-1.95-40.471 14.141-86.792 55.589-110.686 2.438-1.463 3.413-4.389 1.95-6.827l-40.472-70.217c0 0-4.389-3.413-6.827-1.95-41.448 23.893-89.722 15.116-123.855-6.827-6.827-4.389-14.141-8.777-21.455-12.19-36.083-18.525-67.778-55.584-67.778-103.37 0-2.926-2.438-4.876-4.876-4.876h-81.432c-2.926 0-4.876 2.438-4.876 4.876 0 47.787-31.695 84.846-67.779 103.37-7.314 3.901-14.629 7.802-21.455 12.19-34.133 21.943-82.408 31.208-123.855 6.827-2.438-1.463-5.364-0.488-6.827 1.95l-40.472 70.217c0 0-0.488 5.364 1.95 6.827 41.448 23.893 58.027 70.215 55.589 110.686 0 3.901 0 8.29 0 12.19s0 8.29 0 12.19c1.95 40.471-14.141 86.793-55.589 110.686-2.438 1.463-3.413 4.389-1.95 6.826l40.472 70.215c0 0 4.389 3.413 6.827 1.95 41.448-23.892 89.722-15.116 123.855 6.827 6.827 4.388 14.141 8.777 21.455 12.19 36.084 18.529 67.779 55.587 67.779 103.372 0 2.925 2.438 4.876 4.876 4.876h81.432c2.926 0 4.876-2.438 4.876-4.876 0-47.785 31.695-84.843 67.778-103.372 7.314-3.901 14.629-7.802 21.455-12.19 34.133-21.942 82.408-31.207 123.855-6.827 2.438 1.463 5.364 0.488 6.827-1.95l40.472-70.215c0 0 0.488-5.363-1.95-6.826-41.448-23.893-57.539-70.215-55.589-110.686 0-3.901 0-8.29 0-12.19z" />
<glyph unicode="&#xe930;" glyph-name="notification_investment_base" data-tags="notification_investment_base" horiz-adv-x="975" d="M203.174 390.096h81.27v-162.533h-81.27v162.533zM365.714 227.563h81.27v284.436h-81.27v-284.436zM528.251 227.563h81.271v406.338h-81.271v-406.338zM934.604 796.435c0-89.8-72.738-162.535-162.543-162.535v-446.97c0-67.048-54.857-121.9-121.905-121.9h-487.617c-67.048 0-121.905 54.852-121.905 121.9v487.604c0 67.046 54.857 121.901 121.905 121.901h446.984c0 89.8 72.738 162.535 162.538 162.535 89.805 0 162.543-72.734 162.543-162.535zM731.428 638.979c-57.090 14.73-102.093 59.63-116.824 116.822h-452.065c-21.536 0-41.955-8.533-57.397-23.872-15.34-15.441-23.873-35.859-23.873-57.396v-487.604c0-21.538 8.533-41.955 23.873-57.398 15.441-15.438 35.759-23.869 57.397-23.869h487.617c21.538 0 41.96 8.533 57.398 23.869 15.443 15.443 23.874 35.762 23.874 57.398v452.050zM830.478 724.006h-82.183v0.61l14.629 13.511c38.498 37.18 62.981 64.405 62.981 98.232 0 26.209-16.56 53.23-55.974 53.23-21.129 0-39.112-7.924-51.81-18.59l7.924-17.473c8.431 7.010 22.25 15.44 38.805 15.44 27.331 0 36.269-17.168 36.269-35.758-0.307-27.53-21.436-51.198-68.062-95.692l-19.407-18.895v-15.238h116.829v20.622z" />
<glyph unicode="&#xe931;" glyph-name="consortium_auto_base" data-tags="consortium_auto_base" horiz-adv-x="877" d="M723.139 616.562h-40.472l-150.187 184.663c-7.802 9.113-19.505 14.869-31.695 14.869h-111.177v-70.028h96.548l105.813-129.984h-71.68v-70.028h203.337c27.794 0 50.712-22.064 50.712-49.883v-119.913c0-14.868-7.314-28.774-18.042-37.888-17.067 45.563-61.928 78.18-114.103 78.18-56.564 0-104.35-38.371-118.004-90.175h-170.179c-13.653 51.805-61.44 90.175-118.004 90.175-52.175 0-97.036-32.617-114.103-78.18-11.215 9.114-18.042 22.543-18.042 37.888v119.913h-71.192v-119.913c0-54.199 36.084-99.762 86.308-114.634 15.116-48.923 63.39-84.894 116.541-84.894s98.499 33.573 115.078 80.101h176.518c17.067-46.529 59.977-80.101 115.078-80.101s101.425 35.494 116.541 84.894c49.737 14.872 86.309 60.436 86.309 114.634v119.913c0 66.671-54.613 120.391-121.905 120.391zM235.52 246.278c-27.794 0-50.712 22.543-50.712 49.883 0 27.336 22.918 49.879 50.712 49.879s50.712-22.060 50.712-49.879c0-27.824-22.918-49.883-50.712-49.883zM641.706 246.278c-27.794 0-50.712 22.543-50.712 49.883 0 27.336 22.918 49.879 50.712 49.879s50.712-22.060 50.712-49.879c0-27.824-22.918-49.883-50.712-49.883zM212.114 541.257c-18.042 2.399-35.596 6.236-51.2 13.43v51.322c26.331-11.991 49.737-18.227 70.705-18.227 14.141 0 24.869 2.398 32.183 7.195s11.215 11.991 11.215 20.625c0 5.276-1.463 10.072-4.389 13.43-2.926 3.837-8.29 8.154-15.604 11.991s-18.53 8.154-32.67 12.95c-19.992 6.715-35.109 15.829-45.349 28.299-10.24 11.991-15.604 26.38-15.604 43.168 0 24.462 8.777 43.648 26.819 57.557 6.827 5.756 15.116 9.593 24.381 12.951v51.322h64.366v-44.128c15.116-1.438 30.232-4.316 43.886-10.072v-49.404c-18.53 8.154-37.547 12.471-56.564 12.471-13.166 0-23.406-2.398-30.72-6.715-6.827-4.317-10.24-11.032-10.24-19.665 0-7.195 3.413-13.43 10.24-18.707 7.314-4.796 20.48-10.072 39.497-16.308 21.943-7.194 38.034-16.787 48.762-29.258 11.215-12.471 16.579-27.82 16.579-46.046 0-24.942-8.777-44.607-26.819-58.997-9.752-8.154-21.455-13.43-35.109-17.267v-50.363h-64.366v48.444z" />
<glyph unicode="&#xe932;" glyph-name="consortium_home_base" data-tags="consortium_home_base" horiz-adv-x="780" d="M165.79 563.083c-18.042 2.398-36.084 6.235-51.688 13.43v51.802c26.819-11.991 50.225-18.227 71.68-18.227 14.141 0 25.356 2.398 32.67 7.195s11.215 11.991 11.215 20.625c0 5.276-1.463 10.072-4.389 13.43-2.926 3.837-8.29 8.154-15.604 11.991s-18.53 8.154-33.158 12.951c-19.992 6.715-35.596 15.828-45.836 28.778-10.24 11.991-15.604 26.86-15.604 43.648 0 24.942 8.777 44.128 27.307 58.037 6.827 5.756 15.116 9.593 24.869 12.951v51.802h64.853v-44.607c15.116-1.438 30.72-4.316 44.373-10.072v-49.883c-18.53 8.154-38.034 12.47-57.051 12.47-13.166 0-23.893-2.398-31.208-6.715-6.827-4.316-10.24-11.031-10.24-19.665 0-7.195 3.413-13.43 10.24-18.706 7.314-4.797 20.48-10.073 39.985-16.308 21.943-7.195 38.522-16.788 49.25-29.738 11.215-12.471 16.579-28.299 16.579-46.526 0-25.421-8.777-45.087-27.307-59.476-9.752-8.154-21.455-13.43-35.596-17.267v-50.843h-64.853v48.924h-0.488zM727.528 596.179l-284.283 233.587c-30.232 24.942-74.118 24.942-104.35 0l-28.282-23.023 44.861-54.2 28.77 23.503c3.901 2.878 9.265 2.878 13.166 0l284.283-233.587c0 0 3.413-4.796 3.413-7.674v-262.363c0-27.824-22.918-49.883-50.712-49.883h-121.417v94.969c0 40.77-33.647 73.865-75.094 73.865h-97.036c-41.448 0-75.093-33.095-75.093-73.865v-94.969h-118.979c-28.282 0-50.712 22.543-50.712 49.883v243.657h-71.192v-243.657c0-66.194 54.613-119.915 121.905-119.915h155.063c19.017 0 34.621 15.35 34.621 34.055v130.945c0 0 1.95 3.838 3.901 3.838h97.036c0 0 3.901-1.921 3.901-3.838v-130.945c0-18.705 15.604-34.055 34.621-34.055h157.502c67.291 0 121.905 53.721 121.905 119.915v262.363c0 23.503-10.728 46.046-29.257 61.395h1.463z" />
<glyph unicode="&#xe933;" glyph-name="money_base" data-tags="money_base" horiz-adv-x="877" d="M439.344 918.175c-224.305 0-406.674-181.876-406.674-406.174s181.882-406.175 406.187-406.175c224.306 0 406.188 181.877 406.188 406.175s-181.394 406.174-405.701 406.174zM439.344 176.53c-185.295 0-335.482 150.182-335.482 335.47s150.187 335.472 335.482 335.472c185.297 0 335.483-150.182 335.483-335.472s-150.187-335.47-335.483-335.47zM536.869 506.149c14.141-16.091 20.968-35.595 20.968-59.488 0-31.695-11.215-57.051-33.646-76.069-12.19-10.24-26.819-17.549-44.373-22.426v-55.101h-81.434v51.688c-22.918 2.926-44.373 9.265-64.853 18.037v65.829c33.158-15.604 62.903-23.406 89.722-23.406 18.042 0 31.208 2.926 40.472 9.265s14.141 15.116 14.141 26.819c0 6.827-1.95 12.678-5.851 17.554-3.413 5.363-10.24 10.24-19.992 15.116-9.265 4.876-23.406 10.24-41.448 16.579-24.869 8.289-44.373 20.48-57.539 36.083s-19.505 34.132-19.505 55.587c0 31.207 11.215 56.075 34.133 74.116 8.777 7.314 19.017 13.165 30.72 17.554v55.587h81.434v-46.322c19.505-1.95 38.034-6.339 55.589-13.653v-63.389c-23.893 10.727-47.787 16.091-71.681 16.091-17.067 0-29.745-2.926-39.010-8.777-8.777-5.851-13.166-14.14-13.166-25.355 0-9.265 4.389-17.554 13.166-23.893 9.265-6.339 25.844-13.165 50.225-20.967 27.796-9.265 48.276-21.455 61.929-37.546v0.488z" />
<glyph unicode="&#xe934;" glyph-name="wallet_base" data-tags="wallet_base" d="M767.744 800.248l0.512 0.512c29.184 0 53.248-23.551 53.248-53.246v-43.006h-3.072c-2.56 0-7.68 0-7.68 0h-650.751v42.494c0 29.183 23.552 53.246 53.248 53.246h554.495zM85.249 703.995v-426.485c0-70.651 57.344-127.995 128-127.995h597.503c70.656 0 128 57.344 128 127.995v298.488c0 37.887-16.384 72.19-42.496 95.229v75.261c0 70.654-57.344 127.996-128 127.996h-555.007c-70.656 0-128-57.342-128-127.996v-42.494zM160.001 277.51v351.735h655.359c27.136-2.56 48.64-25.087 48.64-53.246v-298.488c0-29.696-24.064-53.243-53.248-53.243h-597.503c-29.696 0-53.248 24.059-53.248 53.243zM703.744 384.006c23.552 0 42.496 18.944 42.496 42.491 0 23.552-18.944 42.496-42.496 42.496s-42.496-18.944-42.496-42.496c0-23.547 18.944-42.491 42.496-42.491z" />
<glyph unicode="&#xe935;" glyph-name="contact_book_base" data-tags="contact_book_base" horiz-adv-x="828" d="M230.839 409.804c0 47.689 38.66 86.348 86.349 86.348h259.252c47.689 0 86.348-38.658 86.348-86.348v-56.486c0-47.689-38.658-86.348-86.348-86.348h-259.252c-47.689 0-86.349 38.658-86.349 86.348v56.486zM317.188 425.042c-8.416 0-15.238-6.822-15.238-15.238v-56.486c0-8.416 6.823-15.238 15.238-15.238h259.252c8.416 0 15.238 6.822 15.238 15.238v56.486c0 8.416-6.822 15.238-15.238 15.238h-259.252zM444.783 760.279c-63.4 0-114.794-51.395-114.794-114.794s51.395-114.794 114.794-114.794c63.4 0 114.79 51.395 114.79 114.794s-51.39 114.794-114.79 114.794zM401.099 645.485c0 24.125 19.557 43.682 43.683 43.682 24.123 0 43.681-19.557 43.681-43.682s-19.558-43.682-43.681-43.682c-24.126 0-43.683 19.557-43.683 43.682zM69.518 711.517h-47.747v-71.111h47.747v-91.429h-45.714v-71.11h45.714v-91.429h-45.714v-71.109h46.12v-45.31c0-71.88 65.266-121.295 134.705-121.295h466.896c69.554 0 134.705 49.922 134.705 121.295v483.962c0 71.88-65.268 121.295-134.705 121.295h-467.302c-69.555 0-134.705-49.922-134.705-121.295v-42.464zM140.629 753.981c0 22.901 23.434 50.184 63.594 50.184h467.302c40.272 0 63.59-26.978 63.59-50.184v-483.962c0-22.899-23.43-50.186-63.59-50.186h-466.896c-40.276 0-63.594 26.98-63.594 50.186v45.31h45.308v71.109h-45.714v91.429h45.714v71.11h-45.714v91.429h43.682v71.111h-43.682v42.464z" />
<glyph unicode="&#xe936;" glyph-name="continuous_cycle_base" data-tags="continuous_cycle_base" horiz-adv-x="926" d="M872.435 781.808c-11.274 26.616-27.326 50.487-47.845 71.008-20.524 20.52-44.393 36.57-71.012 47.846-27.628 11.783-56.886 17.676-87.060 17.676-30.169 0-59.426-5.892-86.957-17.574-26.619-11.276-50.488-27.326-71.012-47.846-20.519-20.52-36.571-44.392-47.847-71.008-11.683-27.53-17.574-56.887-17.574-86.956s5.892-59.427 17.574-86.957c0.407-1.016 0.812-1.93 1.321-2.946-5.79 2.946-11.683 5.689-17.676 8.228-32.711 13.612-67.25 20.621-102.908 20.621s-70.197-7.009-102.807-20.723c-31.492-13.308-59.733-32.304-83.911-56.582-24.279-24.279-43.276-52.519-56.584-83.909-11.581-27.324-18.286-56.074-20.216-85.634 8.127 2.028 16.559 3.15 25.295 3.15 5.181 0 10.464-0.41 15.645-1.219 9.65 114.382 105.55 204.284 222.578 204.284 123.429 0 223.493-100.061 223.493-223.487 0-36.571-8.841-71.109-24.381-101.586-0.102-0.302-0.307-0.61-0.41-0.809-0.61-1.117-1.219-2.238-1.829-3.355-0.302-0.507-0.507-1.014-0.809-1.521-0.61-1.019-1.117-2.033-1.726-3.15-0.205-0.405-0.41-0.712-0.61-1.117-0.712-1.321-1.526-2.643-2.336-3.862-0.307-0.405-0.507-0.912-0.814-1.321-0.61-0.912-1.219-1.931-1.726-2.843-0.307-0.405-0.507-0.917-0.814-1.321-0.809-1.219-1.624-2.54-2.438-3.76-0.2-0.405-0.507-0.712-0.712-1.117-0.61-0.912-1.317-1.931-1.926-2.843-0.307-0.41-0.61-0.917-0.917-1.321-0.814-1.117-1.624-2.238-2.336-3.252-0.205-0.302-0.405-0.61-0.712-0.912-0.814-1.117-1.624-2.238-2.54-3.252-0.302-0.405-0.712-0.809-1.014-1.321-0.712-0.912-1.424-1.829-2.136-2.74-0.302-0.307-0.61-0.712-0.809-1.019-0.917-1.117-1.931-2.336-2.945-3.452-0.307-0.405-0.61-0.712-1.019-1.117-0.712-0.814-1.521-1.726-2.233-2.54-0.307-0.405-0.712-0.814-1.019-1.117-1.014-1.117-2.028-2.233-3.048-3.355-0.302-0.302-0.507-0.507-0.809-0.809-0.814-0.917-1.726-1.726-2.54-2.643-0.41-0.405-0.712-0.712-1.117-1.117-0.917-0.912-1.829-1.829-2.745-2.74-0.2-0.205-0.405-0.41-0.61-0.61-1.117-1.019-2.233-2.136-3.35-3.15-0.41-0.307-0.712-0.712-1.117-1.019-0.917-0.809-1.726-1.521-2.643-2.336-0.302-0.302-0.712-0.61-1.014-0.912-1.117-1.019-2.336-1.931-3.457-2.945-0.302-0.307-0.712-0.61-1.014-0.814-0.917-0.712-1.829-1.521-2.745-2.233-0.405-0.307-0.809-0.61-1.219-0.917-1.219-0.912-2.438-1.931-3.656-2.843-0.203-0.102-0.407-0.307-0.61-0.405-1.117-0.814-2.133-1.629-3.25-2.341-0.407-0.302-0.812-0.61-1.219-0.912-1.016-0.712-2.133-1.424-3.15-2.136-0.305-0.2-0.508-0.405-0.812-0.61-1.321-0.912-2.54-1.726-3.86-2.536-0.407-0.205-0.812-0.512-1.219-0.712-1.016-0.61-2.031-1.321-3.048-1.931-0.407-0.205-0.711-0.507-1.117-0.712-1.321-0.814-2.641-1.624-4.064-2.336-0.305-0.205-0.61-0.307-0.914-0.507-1.117-0.61-2.235-1.219-3.352-1.829-0.407-0.205-0.812-0.507-1.219-0.712-1.321-0.712-2.641-1.424-4.064-2.136-0.102-0.102-0.203-0.102-0.305-0.2-1.321-0.712-2.743-1.424-4.165-2.033-0.407-0.2-0.812-0.405-1.321-0.61-1.117-0.507-2.336-1.117-3.454-1.624-0.305-0.102-0.61-0.307-0.914-0.41-1.422-0.61-2.845-1.321-4.369-1.931-0.407-0.2-0.812-0.302-1.117-0.507-1.117-0.507-2.336-0.912-3.454-1.419-0.407-0.205-0.812-0.307-1.219-0.507-1.524-0.61-2.946-1.117-4.47-1.726-0.203-0.102-0.508-0.205-0.812-0.307-1.321-0.507-2.54-0.912-3.86-1.321-0.407-0.102-0.914-0.302-1.321-0.405-1.422-0.507-2.743-0.917-4.165-1.321-0.203-0.102-0.305-0.102-0.508-0.205-1.524-0.507-3.048-0.912-4.673-1.419-0.407-0.102-0.914-0.205-1.321-0.41-1.219-0.302-2.54-0.712-3.759-1.014-0.407-0.102-0.711-0.205-1.117-0.307-1.524-0.405-3.15-0.809-4.774-1.117-0.407-0.102-0.711-0.2-1.117-0.2-1.321-0.307-2.54-0.61-3.86-0.814-0.407-0.102-0.914-0.2-1.321-0.302-1.626-0.307-3.25-0.61-4.876-0.917-0.203 0-0.305-0.102-0.508-0.102-1.524-0.302-2.946-0.507-4.47-0.712-0.508-0.102-0.914-0.102-1.422-0.2-1.422-0.205-2.845-0.41-4.267-0.61-0.305 0-0.508-0.102-0.812-0.102-1.626-0.205-3.352-0.41-4.978-0.61-0.407 0-0.812-0.102-1.321-0.102-1.321-0.102-2.641-0.205-4.064-0.405-0.407 0-0.812-0.102-1.219-0.102-1.626-0.102-3.352-0.205-5.079-0.307-0.305 0-0.61 0-1.016 0-1.422-0.102-2.845-0.102-4.267-0.2-0.508 0-0.914 0-1.422 0-1.727 0-3.454-0.102-5.181-0.102-1.829 0-3.759 0-5.588 0.102-0.407 0-0.812 0-1.219 0-1.93 0.098-3.759 0.098-5.588 0.2 0 0 0 0-0.102 0-1.93 0.102-3.86 0.205-5.79 0.41-0.203 0-0.407 0-0.61 0-10.159 0.809-20.114 2.336-29.867 4.569-60.952 13.512-112.559 52.009-143.543 104.126l106.057-27.531c10.87-2.745 21.943 3.857 24.686 14.828 2.743 10.869-3.86 21.943-14.831 24.688l-157.054 40.633c-10.87 2.74-21.943-3.862-24.686-14.833l-46.121-162.533c-2.743-10.869 3.86-21.943 14.831-24.683 1.626-0.41 3.352-0.61 4.978-0.61 9.143 0 17.371 6.193 19.708 15.438l34.438 119.262c11.784-20.929 26.311-40.126 43.479-57.295 8.127-8.124 16.762-15.745 25.803-22.655 0.61-0.507 1.219-0.912 1.829-1.419 0.812-0.61 1.727-1.321 2.54-1.931 0.61-0.507 1.321-0.917 1.93-1.424 1.016-0.712 2.133-1.521 3.15-2.233 1.117-0.814 2.235-1.526 3.352-2.336 0.812-0.507 1.524-1.019 2.336-1.526s1.626-1.014 2.438-1.521c0.711-0.507 1.524-1.019 2.336-1.424 0.914-0.61 1.829-1.219 2.845-1.726 0.61-0.405 1.219-0.809 1.93-1.117 1.524-0.912 2.946-1.829 4.47-2.643 0.61-0.405 1.219-0.707 1.93-1.117 1.016-0.61 2.133-1.219 3.15-1.726 0.61-0.302 1.219-0.712 1.829-1.014 1.321-0.712 2.743-1.424 4.064-2.136 0.305-0.2 0.61-0.302 0.914-0.507 1.626-0.809 3.352-1.624 4.978-2.438 0.508-0.2 1.016-0.507 1.524-0.712 1.219-0.61 2.54-1.219 3.86-1.829 0.508-0.2 1.016-0.507 1.524-0.712 1.727-0.809 3.454-1.521 5.283-2.336 32.61-13.917 67.15-20.924 102.807-20.924s70.197 7.007 102.807 20.724c31.492 13.307 59.732 32.305 83.913 56.583 24.279 24.279 43.276 52.517 56.583 83.905 0.2 0.41 0.302 0.814 0.507 1.219 13.41 32.202 20.314 66.438 20.314 101.586 0 35.66-7.007 70.198-20.724 102.805-2.536 5.993-5.281 11.885-8.226 17.676 1.014-0.407 1.931-0.914 2.945-1.321 27.531-11.682 56.891-17.574 86.957-17.574 30.071 0 59.431 5.892 86.962 17.574 26.614 11.276 50.488 27.326 71.007 47.846 20.524 20.52 36.571 44.392 47.85 71.008 11.683 27.53 17.574 56.887 17.574 86.957s-5.793 59.629-17.471 87.159h-0.005zM666.518 512c-100.976 0-182.857 81.877-182.857 182.852s81.881 182.851 182.857 182.851c100.976 0 182.857-81.877 182.857-182.851s-81.881-182.852-182.857-182.852z" />
<glyph unicode="&#xe937;" glyph-name="team_base" data-tags="team_base" horiz-adv-x="975" d="M202.991 593.267c44.8 0 81.27 36.469 81.27 81.267s-36.47 81.267-81.27 81.267c-44.8 0-81.27-36.468-81.27-81.267s36.47-81.267 81.27-81.267zM202.991 715.168c22.45 0 40.635-18.183 40.635-40.634s-18.184-40.634-40.635-40.634c-22.451 0-40.635 18.183-40.635 40.634s18.184 40.634 40.635 40.634zM487.436 593.267c44.798 0 81.267 36.469 81.267 81.267s-36.469 81.267-81.267 81.267c-44.801 0-81.27-36.468-81.27-81.267s36.47-81.267 81.27-81.267zM487.436 715.168c22.45 0 40.633-18.183 40.633-40.634s-18.183-40.634-40.633-40.634c-22.452 0-40.636 18.183-40.636 40.634s18.184 40.634 40.636 40.634zM771.879 593.267c44.802 0 81.271 36.469 81.271 81.267s-36.469 81.267-81.271 81.267c-44.798 0-81.267-36.468-81.267-81.267s36.469-81.267 81.267-81.267zM771.879 715.168c22.45 0 40.638-18.183 40.638-40.634s-18.183-40.634-40.638-40.634c-22.45 0-40.633 18.183-40.633 40.634s18.183 40.634 40.633 40.634zM895.208 288.513c0-11.171-9.143-20.314-20.319-20.314h-772.063c-11.174 0-20.317 9.143-20.317 20.314 0 11.176 9.143 20.318 20.317 20.318h772.063c11.176 0 20.319-9.141 20.319-20.318zM914.103 674.433c-10.162 0-18.695-7.517-20.114-17.676-3.76-26.209-17.374-50.487-36.674-69.382-22.45-22.044-52.726-34.539-84.114-34.843-33.017-0.305-64.102 12.393-87.367 35.656-18.588 18.59-30.476 42.158-34.333 67.655-1.629 10.667-10.869 18.488-21.743 18.488-10.869 0-20.114-7.821-21.738-18.59-3.964-25.904-16.052-49.777-35.148-68.468-22.455-22.044-52.726-34.539-84.114-34.843-33.019-0.305-64.104 12.393-87.367 35.656-18.59 18.59-30.476 42.158-34.336 67.655-1.626 10.667-10.87 18.488-21.74 18.488s-20.114-7.821-21.74-18.59c-3.962-25.904-16.050-49.777-35.15-68.467-22.45-22.044-52.724-34.539-84.114-34.844-33.016-0.305-64.102 12.393-87.365 35.656-18.793 18.792-32.102 42.767-35.86 68.569-1.422 10.057-9.955 17.574-20.114 17.574-12.292 0-21.841-10.869-20.114-22.958 6.806-47.948 35.047-89.191 74.565-114.18-20.622-14.73-34.133-38.907-34.133-66.029v-40.634c0-22.349 18.286-40.634 40.635-40.634h162.54c22.35 0 40.635 18.285 40.635 40.634v40.634c0 27.225-13.612 51.503-34.336 66.233 22.654 14.526 41.55 34.539 54.654 58.208 13.105-23.669 32-43.681 54.654-58.208-20.724-14.73-34.336-39.009-34.336-66.233v-40.634c0-22.349 18.286-40.634 40.635-40.634h162.542c22.348 0 40.633 18.285 40.633 40.634v40.634c0 27.225-13.614 51.503-34.338 66.233 22.655 14.526 41.55 34.539 54.657 58.208 13.102-23.669 31.998-43.681 54.652-58.208-20.724-14.73-34.333-39.009-34.333-66.233v-40.634c0-22.349 18.286-40.634 40.633-40.634h162.538c22.352 0 40.638 18.285 40.638 40.634v40.634c0 27.123-13.512 51.3-34.133 66.029 39.517 24.99 67.76 66.131 74.562 114.18 1.526 12.495-8.021 23.263-20.314 23.263l-0.005 0.001zM284.261 430.733c0-0.102 0 0 0 0l-162.438-0.102c0 0-0.102 0-0.102 0.102v40.532c0 10.768 4.267 20.926 11.988 28.647s17.879 11.987 28.648 11.987h81.27c10.769 0 20.927-4.267 28.648-11.987s11.988-17.879 11.988-28.647v-40.532zM568.703 430.733c0-0.102 0 0 0 0l-162.436-0.102c0 0-0.102 0-0.102 0.102v40.532c0 10.768 4.267 20.926 11.988 28.647s17.879 11.987 28.648 11.987h81.27c10.767 0 20.929-4.267 28.648-11.987s11.986-17.879 11.986-28.647v-40.532zM853.151 430.733c0-0.102 0 0 0 0l-162.441-0.102c0 0-0.102 0-0.102 0.102v40.532c0 10.768 4.267 20.926 11.991 28.647 7.719 7.72 17.876 11.987 28.648 11.987h81.267c10.772 0 20.929-4.267 28.648-11.987 7.724-7.721 11.991-17.879 11.991-28.647v-40.532z" />
<glyph unicode="&#xe938;" glyph-name="credit_auto_base" data-tags="credit_auto_base" horiz-adv-x="975" d="M686.613 377.905h-48.762v-44.7h-44.7v-48.762h44.7v-44.695h48.762v44.695h44.695v48.762h-44.695v44.7zM881.66 260.062l-40.638 69.081c32.51 20.319 52.829 56.891 52.829 101.586v121.905c0 69.081-52.829 121.906-121.905 121.906h-40.638l-150.348 186.92c-8.129 8.127-20.319 16.254-32.51 16.254h-284.443c-12.19 0-24.381-4.063-32.508-16.254l-142.222-174.73c-8.127-8.127-8.127-16.254-8.127-24.381v-227.554c0-56.891 36.571-101.591 85.333-117.843 16.254-48.762 60.952-85.333 117.841-85.333 52.826 0 97.524 32.51 113.778 81.271h77.205l-28.443-52.829c-32.508-48.762 4.063-113.776 65.014-113.776h304.762c60.952 0 97.524 65.014 65.019 113.776zM284.325 296.634c-28.444 0-52.825 24.381-52.825 52.829 0 28.443 24.381 52.824 52.825 52.824s52.826-24.381 52.826-52.824c-4.064-28.448-28.445-52.829-52.826-52.829zM816.641 219.429h-304.762c-4.062 0-8.124 4.062-4.062 8.129l150.348 251.933c0 4.067 8.129 4.067 8.129 0l150.348-251.933c8.129-4.067 4.067-8.129 0-8.129zM820.708 430.729c0-16.252-8.129-28.443-16.257-40.633-23.752 40.633-51.010 85.397-73.143 125.967-28.443 48.762-101.586 48.762-130.028 0l-81.271-134.095h-117.841c-12.19 52.829-60.952 89.4-117.841 89.4-52.825 0-97.524-32.51-113.778-81.271-12.19 8.129-16.254 24.381-16.254 40.633v219.43l125.968 158.476h255.999l105.652-134.095h-73.143v-73.143h203.176c28.443 0 48.762-24.382 48.762-48.763v-121.905z" />
<glyph unicode="&#xe939;" glyph-name="credit_automatic_base" data-tags="credit_automatic_base" d="M891.258 753.777v-194.371h-85.333v194.371c0 28.444-23.706 52.148-52.15 52.148h-56.889v-56.889h-85.333v61.63h-293.924v-61.63h-85.333v61.63h-56.889c-28.444 0-52.148-23.704-52.148-52.148v-417.185c0-28.444 23.704-52.15 52.148-52.15h194.371v-85.333h-194.371c-75.852 0-137.481 61.633-137.481 137.483v412.444c0 75.852 61.63 137.481 137.481 137.481h61.629v94.815h85.333v-94.815h293.928v94.815h85.333v-94.815h56.889c71.111 0 132.739-61.629 132.739-137.481zM227.554 564.147h189.629v85.333h-189.629v-85.333zM971.852 170.666l-194.372 336.592c-14.222 28.444-42.667 42.667-75.85 42.667-33.189 0-61.633-18.963-75.856-42.667l-194.368-336.592c-14.222-28.444-14.222-61.628 0-90.072s42.667-42.667 75.852-42.667h388.739c33.189 0 61.633 18.961 75.856 42.667 18.961 28.444 18.961 61.628 0 90.072zM900.741 123.261c0-4.745-4.745-4.745-4.745-4.745h-388.739c0 0-4.741 0-4.741 4.745 0 4.739 0 4.739 0 4.739l194.368 336.592h9.483l194.372-336.592c0 0 4.739 0 0-4.739zM673.186 388.738h56.889v-146.961h-56.889v146.961zM673.186 213.333h56.889v-56.889h-56.889v56.889z" />
<glyph unicode="&#xe93a;" glyph-name="credit_consigned_base" data-tags="credit_consigned_base" d="M393.333 803.351v-582.703c0-25.249 20.467-45.714 45.714-45.714h274.045c25.244 0 45.714 20.465 45.714 45.714v395.661h71.109v-395.661c0-64.522-52.302-116.824-116.824-116.824h-274.045c-18.051 0-35.145 4.091-50.405 11.401l-41.364-7.207c-62.011-10.893-123.334 29.072-134.239 91.472l-93.472 546.61c-11.006 63.212 34.86 120.129 95.924 130.872l163.919 28.066 0.188-1.098c17.416 10.315 37.742 16.236 59.451 16.236h197.982v-71.111h-197.982c-25.247 0-45.714-20.467-45.714-45.714zM330.46 177.47c-5.316 13.361-8.238 27.926-8.238 43.179v582.703c0 6.834 0.587 13.53 1.713 20.043l-96.193-16.47c-26.642-4.723-41.688-28.202-38.114-48.652l0.022-0.128 93.447-546.463c3.53-20.027 23.566-36.157 47.362-34.211zM758.642 684.294v76.722l-77.946 0.281 0.258 71.111 77.687-0.28v86.223h71.109v-86.48l76.322-0.276-0.258-71.11-76.064 0.275v-76.466h-71.109zM536.165 756.219c0-22.35 18.286-40.635 40.633-40.635 22.352 0 40.638 18.286 40.638 40.635s-18.286 40.635-40.638 40.635c-22.348 0-40.633-18.286-40.633-40.635zM536.98 268.601c0-22.352 18.286-40.638 40.633-40.638s40.633 18.286 40.633 40.638c0 22.348-18.286 40.633-40.633 40.633s-40.633-18.286-40.633-40.633zM613.37 582.305c-14.975 0-27.906-4.127-38.551-13.284-10.391-8.535-18.398-21.348-23.606-37.372-4.379-12.729-8.104-21.106-10.713-25.105-2.341-3.043-4.51-3.886-6.773-3.886-3.618 0-5.847 1.278-7.461 3.696-1.989 2.989-3.511 8.051-3.511 16.623 0 11.771 2.565 23.6 8.172 35.56l5.427 11.577h-53.467l-2.126-4.887c-3.412-7.849-6.061-16.313-7.48-25.183h-26.92v-60.548h34.337c2.414-5.027 5.388-9.801 8.953-14.092 11.878-14.697 28.126-21.665 47.733-21.665 13.531 0 25.932 4.228 35.996 12.376l0.034 0.029c10.391 8.499 17.603 20.070 22.825 34.845 3.672 10.206 6.329 16.964 8.845 21.636 2.619 4.866 4.749 7.243 6.1 8.21 1.668 1.19 3.296 1.737 5.032 1.737 4.272 0 6.627-1.439 8.109-3.851l0.2-0.322 0.224-0.297c2.068-2.76 3.657-7.909 3.657-17.067 0-12.62-4.003-28.058-12.215-45.261l-5.549-11.63h54.565l2.214 4.603c4.691 9.743 7.865 20.007 9.806 30.749h30.008v60.548h-33.197c-2.984 7.831-6.944 14.712-12.137 21.014l-0.029 0.036c-11.927 14.315-28.589 21.21-48.503 21.21z" />
<glyph unicode="&#xe93b;" glyph-name="credit_home_base" data-tags="credit_home_base" d="M885.917 64.532h-378.297c-31.334 0-58.981 16.131-74.643 42.852-15.666 26.728-15.666 59.438-0.462 86.626l189.378 328.071c15.665 27.185 43.312 43.314 74.643 43.314 31.329 0 59.438-16.129 75.103-43.771l189.376-327.609c15.665-27.648 15.205-59.898-0.46-86.626-15.671-27.182-43.318-42.852-74.643-42.852zM696.541 484.757c-3.228 0-4.614-1.843-4.614-2.767v-0.462l-189.374-328.068c-0.462-0.466-1.381-2.767 0-5.529 1.843-2.767 4.148-2.767 5.067-2.767h378.297c0.92 0 3.222 0 5.063 2.767 1.847 2.767 0.466 5.063 0 5.988l-189.376 327.609c-0.46 0.923-1.381 3.224-5.063 3.224zM789.155 304.596h-63.586v63.586h-57.597v-63.586h-63.586v-57.597h63.586v-63.586h57.597v63.586h63.586v57.597zM518.682 435.455l-107.819 0.923c-47.46 0-86.624-38.707-86.624-86.621v-109.205h-140.076c-28.567 0-51.604 23.034-51.604 51.603v309.637c0 1.381 0.923 3.224 1.843 4.148l311.943 265.867c10.599 9.214 26.724 9.214 37.324 0l314.707-271.395c1.381-0.923 2.307-2.767 2.307-4.609v-37.324c3.688-5.067 8.295-9.214 11.057-14.743l69.114-119.338v172.329c0 25.343-11.057 48.843-29.952 65.428l-314.707 271.395c-40.548 34.557-101.829 34.557-142.379 0l-311.943-265.866c-19.352-16.586-30.409-40.547-30.409-65.428v-309.639c0-72.797 59.438-132.702 132.702-132.702h157.586c35.019 0 63.586 28.569 63.586 63.586v126.256c0 3.222 2.767 5.529 5.529 5.529l61.743-0.466 46.076 80.635z" />
<glyph unicode="&#xe93c;" glyph-name="credit_custom_base" data-tags="credit_custom_base" horiz-adv-x="828" d="M193.759 922.818c-44.323 0-80.254-35.931-80.254-80.254s35.931-80.254 80.254-80.254c44.323 0 80.254 35.931 80.254 80.254s-35.931 80.254-80.254 80.254zM48.286 649.346h731.429v71.111h-731.429v-71.111zM378.444 356.778v75.376h71.113v-75.376h69.734v-71.114h-69.734v-56.686h-71.113v56.686h-66.031v71.114h66.031zM478.78 587.825c-30.359 44.779-95.953 44.779-126.311 0l-207.26-306.218c-50.162-77.58 5.192-180.424 98.124-180.424h344.586c92.93 0 148.285 102.844 98.124 180.424l-0.205 0.312-207.058 305.906zM204.75 242.719l206.578 305.201c2.15 3.163 6.446 3.164 8.597 0l206.575-305.201c19.427-30.476-2.404-70.427-38.58-70.427h-344.586c-36.178 0-58.009 39.951-38.584 70.427zM552.157 834.44c-20.197 0-36.571-16.374-36.571-36.571s16.374-36.571 36.571-36.571c20.197 0 36.571 16.374 36.571 36.571s-16.374 36.571-36.571 36.571zM685.848 836.876c-20.197 0-36.571-16.374-36.571-36.571s16.374-36.571 36.571-36.571c20.197 0 36.571 16.374 36.571 36.571s-16.374 36.571-36.571 36.571z" />
<glyph unicode="&#xe93d;" glyph-name="credit_base" data-tags="credit_base" horiz-adv-x="780" d="M755.81 725.814h-82.408v-82.405h-69.73v82.405h-82.408v69.728h82.408v82.405h69.73v-82.405h82.408v-69.728zM278.43 616.59c-22.918-18.041-34.133-42.91-34.133-74.116 0-21.454 6.339-39.983 19.505-55.587s32.67-27.794 57.539-36.083c18.042-6.339 32.183-11.702 41.448-16.579 9.752-4.876 16.579-9.752 19.992-15.116 3.901-4.876 5.851-10.728 5.851-17.554 0-11.703-4.876-20.48-14.141-26.819s-22.43-9.265-40.472-9.265c-26.819 0-56.564 7.802-89.722 23.406v-65.824c19.992-9.265 41.448-15.116 64.853-18.042v-51.688h81.432v55.101c17.067 4.389 31.695 12.19 44.373 22.43 22.43 19.012 33.646 44.368 33.646 76.064 0 23.892-6.827 43.397-20.968 59.488-13.653 16.091-34.133 28.281-61.928 37.546-24.381 7.801-40.96 14.628-50.225 20.967-8.777 6.339-13.166 14.628-13.166 23.893 0 11.215 4.389 19.504 13.166 25.355 9.265 5.851 21.943 8.777 39.010 8.777 23.893 0 47.787-5.364 71.68-16.091v63.389c-17.554 7.314-36.084 12.19-55.589 13.653v46.322h-81.432v-55.587c-11.215-4.389-21.455-10.24-30.72-17.554v-0.488zM674.865 593.185v-325.232c0-67.291-54.613-121.9-121.905-121.9h-406.675c-67.291 0-121.905 54.608-121.905 121.9v406.662c0 67.289 54.613 121.901 121.905 121.901h325.242v-71.19h-325.242c-28.282 0-50.712-22.917-50.712-50.711v-406.174c0-28.282 22.918-50.712 50.712-50.712h406.187c28.282 0 50.712 22.918 50.712 50.712v325.232h71.192l0.488-0.488z" />
<glyph unicode="&#xe93e;" glyph-name="ticket_base" data-tags="ticket_base" horiz-adv-x="877" d="M769.878 257.968h-661.637c-41.732 0-76.172 34.031-76.172 76.169v127.219l21.069 9.319c17.827 7.698 29.172 23.094 29.172 39.3s-10.939 31.603-29.172 39.3l-21.474 9.319v131.27c0 41.731 34.034 76.169 76.172 76.169h661.232c41.735 0 76.171-34.033 76.171-76.169v-132.080l-21.879-8.914c-13.371-5.672-27.955-22.688-27.955-38.895s10.942-31.602 29.174-39.3l21.47-9.319v-127.219c0-41.728-34.031-76.169-76.171-76.169zM102.975 417.599v-83.462c0-2.836 2.431-4.862 4.862-4.862h661.637c2.838 0 4.862 2.431 4.862 4.862v83.057c-31.603 21.473-50.239 55.101-50.239 92.78 0 35.249 19.856 70.902 49.835 92.376v87.513c0 2.836-2.428 4.862-4.862 4.862h-660.827c-2.836 0-4.862-2.431-4.862-4.862v-87.513c31.603-21.473 50.24-55.101 50.24-92.376s-19.042-70.902-50.24-92.375h-0.405zM417.79 614.91c8.103 17.422 32.818 17.422 40.922 0l23.906-51.86 56.725-6.482c19.042-2.431 26.331-25.525 12.556-38.895l-42.135-38.895 11.342-55.911c3.647-19.042-16.204-33.222-32.817-23.904l-49.835 27.956-49.836-27.956c-16.612-9.318-36.465 5.267-32.819 23.904l11.345 55.911-42.138 38.895c-13.776 12.965-6.482 36.464 12.56 38.895l56.724 6.482 23.905 51.86h-0.405z" />
<glyph unicode="&#xe93f;" glyph-name="like_base" data-tags="like_base" horiz-adv-x="828" d="M27.42 634.105h71.111v-490.045h-71.111v490.045zM797.857 481.729l-75.581-287.278c-14.219-53.638-62.576-91.024-117.838-91.024h-267.786c-86.959 0-157.664 70.705-157.664 157.662v302.72c0 39.415 31.695 71.109 70.705 71.109l135.721 263.713c6.908 13.409 20.724 21.942 36.165 21.942h23.568c76.8 0 134.91-70.296 119.467-145.875l-28.038-139.78h143.033c80.052 0 138.162-75.579 117.843-152.783l0.405-0.406zM680.828 565.028h-227.96l45.103 222.267c6.91 32.913-18.284 63.389-51.605 63.389h-6.501l-99.555-216.171c-13.41-28.85-37.384-51.199-66.641-62.576l-23.162-8.94v-302.317c0-47.538 38.603-88.171 86.552-88.171h268.599c23.971 0 45.105 16.252 51.2 39.414l75.581 287.279c8.533 32.913-16.662 65.827-51.2 65.827h-0.41z" />
<glyph unicode="&#xe940;" glyph-name="debt_base" data-tags="debt_base" horiz-adv-x="877" d="M592.335 620.672l-296.695-0.813v-72.345l296.695 0.813v72.345zM828.469 697.485l-282.468-493.815h0.405c-47.553-83.315-167.855-83.315-215.407 0l-282.469 493.815c-47.146 82.505 12.6 185.332 107.704 185.332h564.53c95.105 0 154.853-102.827 107.705-185.332zM483.006 239.436l282.468 493.814h-0.405c19.914 34.547-4.881 77.222-44.71 77.222h-564.532c-39.424 0-64.216-42.675-44.707-77.222l282.063-493.814c19.915-34.548 69.908-34.548 89.823 0z" />
<glyph unicode="&#xe941;" glyph-name="bank_cash_in_base" data-tags="bank_cash_in_base" horiz-adv-x="828" d="M379.184 571.392v-446.464h73.728v446.464l184.32-184.32 49.152 49.152-188.416 188.416c-45.056 45.056-122.88 45.056-167.936 0l-188.416-188.416 49.152-49.152 188.416 184.32zM661.808 899.072h-491.52v-69.632h491.52v69.632z" />
<glyph unicode="&#xe942;" glyph-name="lock_open_base" data-tags="lock_open_base" d="M687.748 647.171h-351.019c-6.251 0-12.181-1.165-18.249-1.847v54.66c0 91.166 74.167 165.333 165.333 165.333h55.855c79.689 0 146.368-56.678 161.903-131.831h75.477c-16.384 116.493-116.442 206.498-237.38 206.498h-55.855c-132.335 0-240-107.665-240-240v-81.532c-43.661-29.789-72.418-79.884-72.418-136.609v-318.106c0-44.126 35.895-80 80-80h521.69c44.126 0 80 35.874 80 80v318.106c0 91.166-74.172 165.328-165.338 165.328zM778.415 163.733c0-2.957-2.377-5.333-5.333-5.333h-521.685c-2.935 0-5.333 2.377-5.333 5.333v318.106c0 50.001 40.666 90.667 90.667 90.667h351.023c50.001 0 90.667-40.666 90.667-90.667l-0.004-318.106zM474.581 439.735h74.667v-147.959h-74.667v147.959z" />
<glyph unicode="&#xe943;" glyph-name="dislike_base" data-tags="dislike_base" horiz-adv-x="828" d="M27.42 389.896h71.111v490.042h-71.111v-490.042zM797.857 542.271l-75.581 287.28c-14.219 53.637-62.576 91.020-117.838 91.020h-267.786c-86.959 0-157.664-70.702-157.664-157.659v-302.721c0-39.415 31.695-71.11 70.705-71.11l135.721-263.714c6.908-13.405 20.724-21.938 36.165-21.938h23.568c76.8 0 134.91 70.295 119.467 145.871l-28.038 139.781h143.033c80.052 0 138.162 75.579 117.843 152.784l0.405 0.406zM680.828 458.972h-227.96l45.103-222.267c6.91-32.914-18.284-63.386-51.605-63.386h-6.501l-99.555 216.171c-13.41 28.848-37.384 51.195-66.641 62.571l-23.162 8.941v302.315c0 47.541 38.603 88.175 86.552 88.175h268.599c23.971 0 45.105-16.254 51.2-39.415l75.581-287.28c8.533-32.913-16.662-65.827-51.2-65.827h-0.41z" />
<glyph unicode="&#xe944;" glyph-name="health_base" data-tags="health_base" horiz-adv-x="877" d="M724.096 723.086h-104.531v54.291c0 44.567-36.469 81.031-81.037 81.031h-199.746c-44.568 0-81.034-36.464-81.034-81.031v-54.291h-104.533c-66.853 0-121.55-54.696-121.55-121.547v-314.399c0-66.853 54.698-121.549 121.55-121.549h571.285c66.853 0 121.549 54.696 121.549 121.549v314.399c0 66.851-54.696 121.547-121.549 121.547h-0.405zM328.653 777.377c0 5.672 4.457 10.129 10.129 10.129h199.746c5.676 0 10.133-4.456 10.133-10.129v-53.075h-220.007v53.075zM774.74 287.141c0-27.955-22.689-50.644-50.644-50.644h-571.286c-27.957 0-50.646 22.689-50.646 50.644v314.399c0 27.956 22.689 50.645 50.646 50.645h571.286c27.955 0 50.644-22.689 50.644-50.645v-314.399zM475.729 479.588h67.256v-70.902h-67.256v-67.258h-70.904v67.258h-67.258v70.902h67.258v67.256h70.904v-67.256z" />
<glyph unicode="&#xe945;" glyph-name="doc_folder_base" data-tags="doc_folder_base" horiz-adv-x="877" d="M235.276 847.228h406.186c28.282 0 50.712-22.918 50.712-50.711v-208.207h71.192v208.207c0 67.289-54.613 121.901-121.905 121.901h-406.186c-67.291 0-121.905-54.612-121.905-121.901v-96.546h71.192v96.546c0 28.281 22.918 50.711 50.712 50.711zM275.749 699.971h325.241v71.19h-325.241v-71.19zM722.895 532.235h-218.453c-16.579 0-32.67 4.876-46.323 14.628l-120.442 83.868c-13.653 9.264-29.745 14.628-46.324 14.628h-137.021c-67.291 0-121.905-54.612-121.905-121.901v-295.976c0-67.291 54.613-121.9 121.905-121.9h569.051c67.291 0 121.905 54.608 121.905 121.9v182.852c0 67.289-54.613 121.901-121.905 121.901h-0.488zM773.607 227.482c0-28.282-22.918-50.712-50.712-50.712h-568.563c-28.282 0-50.712 22.918-50.712 50.712v295.976c0 28.281 22.918 50.711 50.712 50.711h137.021c0 0 3.901-0.488 5.851-1.95l120.442-83.868c25.356-18.041 56.076-27.306 87.283-27.306h218.453c28.282 0 50.712-22.916 50.712-50.71v-182.852h-0.488z" />
<glyph unicode="&#xe946;" glyph-name="doc_base" data-tags="doc_base" horiz-adv-x="682" d="M555.397 106.556h-428.128c-62.415 0-112.64 50.712-112.64 112.64v585.611c0 62.413 50.712 112.637 112.64 112.637h428.128c62.415 0 112.64-50.711 112.64-112.637v-585.124c0-62.415-50.712-112.64-112.64-112.64v-0.488zM127.269 844.304c-21.943 0-39.497-17.554-39.497-39.496v-585.124c0-21.943 17.554-39.497 39.497-39.497h428.128c21.943 0 39.497 17.554 39.497 39.497v585.124c0 21.942-17.554 39.496-39.497 39.496h-428.128zM504.685 710.7h-325.24v-71.678h325.24v71.678zM504.685 548.328h-325.24v-71.678h325.24v71.678zM341.334 385.957h-161.402v-71.68h161.402v71.68z" />
</font>
</defs>
</svg>
